<svg width="28127" height="5000" viewBox="0 0 28127 5000" fill="none" xmlns="http://www.w3.org/2000/svg">
<path opacity="0.99" fill-rule="evenodd" clip-rule="evenodd" d="M2337.46 0C2440.67 0 2543.85 0 2647.06 0C3680.46 110.389 4405.43 641.864 4821.98 1594.43C5138.7 2521.84 4994.23 3368.07 4388.54 4133.13C3918.16 4655.99 3332.51 4944.95 2631.58 5000C2538.7 5000 2445.82 5000 2352.94 5000C1422.17 4915.26 728.15 4466.35 270.898 3653.25C131.529 3366.89 41.2299 3067.62 0 2755.42C0 2585.14 0 2414.86 0 2244.58C130.328 1300.47 625.684 621.933 1486.07 208.978C1761.69 97.4932 2045.5 27.8337 2337.46 0Z" fill="#035697"/>
<path fill-rule="evenodd" clip-rule="evenodd" d="M1873.07 479.872C2267.73 464.426 2665.03 459.267 3065.02 464.392C3069.82 514.131 3064.66 560.57 3049.54 603.711C3049.54 562.431 3049.54 521.152 3049.54 479.872C2657.39 479.872 2265.22 479.872 1873.07 479.872Z" fill="#BFD4E4"/>
<path fill-rule="evenodd" clip-rule="evenodd" d="M1873.06 479.876C2265.22 479.876 2657.38 479.876 3049.53 479.876C3049.53 521.156 3049.53 562.435 3049.53 603.715C2831.36 573.056 2717.83 665.935 2708.98 882.353C2995.63 861.757 3263.96 921.097 3513.93 1060.37C3742.2 1234.37 3811.86 1458.83 3722.91 1733.75C3708.33 1787.82 3687.69 1839.41 3660.99 1888.54C3526.35 2070.63 3353.48 2202.21 3142.41 2283.28C3441.02 2382.11 3686.11 2554.97 3877.71 2801.86C4114.72 3334.27 3972.83 3734.18 3452.01 4001.55C3292.63 4064.61 3127.51 4103.31 2956.66 4117.65C2301.35 4117.65 1646.02 4117.65 990.711 4117.65C990.711 4071.21 990.711 4024.77 990.711 3978.33C1103.73 3986.59 1212.09 3968.54 1315.79 3924.15C1372.89 3866.64 1406.43 3796.98 1416.41 3715.17C1426.73 2905.06 1426.73 2094.94 1416.41 1284.83C1392.96 1109.2 1292.35 1021.48 1114.55 1021.67C1076.66 1006.61 1035.38 1001.45 990.711 1006.19C990.711 964.912 990.711 923.633 990.711 882.353C1403.51 882.353 1816.3 882.353 2229.1 882.353C2219.02 657.534 2100.34 559.495 1873.06 588.235C1873.06 552.116 1873.06 515.995 1873.06 479.876Z" fill="#FDFEFE"/>
<path fill-rule="evenodd" clip-rule="evenodd" d="M990.695 882.353C990.695 923.633 990.695 964.911 990.695 1006.19C1035.36 1001.45 1076.64 1006.61 1114.53 1021.67C1068.09 1021.67 1021.65 1021.67 975.215 1021.67C970.416 971.933 975.575 925.493 990.695 882.353Z" fill="#AAC5DB"/>
<path fill-rule="evenodd" clip-rule="evenodd" d="M1904.03 1037.14C2240.03 1030.46 2575.44 1038.2 2910.22 1060.36C3223.72 1179.03 3344.99 1403.49 3274 1733.74C3175.31 1988.51 2992.14 2148.46 2724.46 2213.61C2708.98 1862.89 2703.83 1512.01 2708.98 1160.98C2549.03 1160.98 2389.06 1160.98 2229.11 1160.98C2229.11 1537.66 2229.11 1914.34 2229.11 2291.01C2177.25 2288.46 2125.65 2291.04 2074.31 2298.75C2047.06 2350.63 2026.41 2404.81 2012.39 2461.29C2287.43 2449.47 2560.9 2426.25 2832.82 2391.63C3108.87 2523.21 3312.7 2727.04 3444.28 3003.09C3577.16 3472.67 3409.45 3774.53 2941.18 3908.66C2864.8 3926.62 2787.4 3934.36 2708.98 3931.88C2708.98 3472.64 2708.98 3013.41 2708.98 2554.17C2549.63 2575.32 2389.66 2590.8 2229.11 2600.61C2229.11 3044.37 2229.11 3488.12 2229.11 3931.88C2065.84 3941.96 1960.07 3869.71 1911.77 3715.16C1904.03 2822.5 1901.44 1929.84 1904.03 1037.14Z" fill="#055697"/>
<path opacity="0.946" fill-rule="evenodd" clip-rule="evenodd" d="M8111.46 1470.59C8137.26 1470.59 8163.05 1470.59 8188.86 1470.59C8395.23 2035.5 8609.38 2597.93 8831.27 3157.89C8868.61 3237.76 8909.89 3315.15 8955.11 3390.09C9086.95 3471.24 9164.35 3435.11 9187.31 3281.73C9207.66 2688.53 9215.4 2095.14 9210.53 1501.55C9261.38 1497.98 9300.08 1518.62 9326.63 1563.47C9718.11 2042.71 10115.4 2517.43 10518.6 2987.62C10533.1 2558.85 10527.9 2130.59 10503.1 1702.79C10472.7 1600.23 10403.1 1558.95 10294.1 1578.95C10294.1 1553.15 10294.1 1527.35 10294.1 1501.55C10510.9 1521.74 10727.6 1521.74 10944.3 1501.55C10944.3 1527.35 10944.3 1553.15 10944.3 1578.95C10845.8 1564.92 10786.5 1606.19 10766.3 1702.79C10744 2311.3 10736.3 2920.17 10743 3529.41C10692.2 3532.99 10653.5 3512.34 10626.9 3467.49C10229.6 2997.94 9832.31 2528.37 9434.99 2058.82C9424.66 2450.97 9424.66 2843.14 9434.99 3235.29C9432.06 3379.46 9501.72 3446.53 9643.96 3436.53C9643.96 3462.34 9643.96 3488.13 9643.96 3513.93C9246.69 3513.47 8849.37 3513.47 8452.01 3513.93C8452.01 3488.13 8452.01 3462.34 8452.01 3436.53C8526.24 3451.04 8577.83 3425.23 8606.81 3359.13C8569.63 3216.64 8523.19 3077.32 8467.49 2941.18C8240.45 2920.54 8013.42 2920.54 7786.38 2941.18C7726.02 3073.23 7679.58 3209.97 7647.06 3351.39C7647.97 3373.62 7653.13 3394.26 7662.54 3413.31C7707.32 3431.1 7753.76 3438.84 7801.86 3436.53C7801.86 3462.34 7801.86 3488.13 7801.86 3513.93C7595.39 3495.67 7389 3495.67 7182.66 3513.93C7182.66 3488.13 7182.66 3462.34 7182.66 3436.53C7227.94 3437.15 7269.21 3424.26 7306.5 3397.83C7354.94 3339.75 7393.64 3275.25 7422.6 3204.33C7659.96 2628.95 7889.57 2051.02 8111.46 1470.59ZM8126.94 2012.38C8214.2 2248.22 8301.92 2485.57 8390.09 2724.46C8214.66 2745.09 8039.21 2745.09 7863.78 2724.46C7957.76 2488.93 8045.47 2251.58 8126.94 2012.38Z" fill="#025597"/>
<path opacity="0.944" fill-rule="evenodd" clip-rule="evenodd" d="M27120.7 1470.59C27163.2 1462.31 27191.5 1477.79 27205.9 1517.03C27423.5 2091.51 27645.4 2664.26 27871.5 3235.3C27898 3302.99 27936.7 3362.34 27987.6 3413.32C28022.3 3428.44 28058.4 3436.18 28096 3436.54C28096 3462.34 28096 3488.13 28096 3513.94C27879.4 3497.25 27662.7 3497.25 27445.8 3513.94C27445.8 3488.13 27445.8 3462.34 27445.8 3436.54C27482.4 3439.06 27518.4 3436.49 27554.2 3428.8C27588.9 3417.44 27609.4 3394.22 27616.1 3359.14C27575.7 3212.13 27529.3 3067.64 27476.8 2925.7C27249.5 2920.55 27022.4 2925.72 26795.7 2941.18C26731.6 3069.37 26685.1 3203.54 26656.3 3343.66C26657.1 3368.43 26662.2 3391.65 26671.8 3413.32C26716.6 3431.1 26763 3438.84 26811.1 3436.54C26811.1 3462.34 26811.1 3488.13 26811.1 3513.94C26393.2 3513.12 25975.2 3513.12 25557.3 3513.94C25557.3 3488.13 25557.3 3462.34 25557.3 3436.54C25651.9 3450.83 25716.4 3414.71 25750.8 3328.18C25768.1 3052.62 25775.9 2776.57 25774 2500.01C25775.9 2228.55 25768.1 1957.65 25750.8 1687.31C25717 1600.89 25652.5 1564.77 25557.3 1578.95C25557.3 1553.15 25557.3 1527.35 25557.3 1501.55C25784.4 1521.78 26011.3 1521.78 26238.4 1501.55C26238.4 1527.35 26238.4 1553.15 26238.4 1578.95C26125.1 1560.47 26060.5 1606.91 26044.9 1718.27C26014.2 2239.4 26014.2 2760.56 26044.9 3281.74C26076.5 3425.22 26161.6 3469.09 26300.3 3413.32C26344.7 3357.95 26383.4 3298.6 26416.4 3235.3C26655.9 2648.55 26890.6 2060.32 27120.7 1470.59ZM27136.2 2027.87C27226.5 2257.33 27314.2 2489.53 27399.4 2724.46C27224.3 2739.93 27048.8 2745.08 26873.1 2739.94C26954.6 2500.3 27042.4 2262.95 27136.2 2027.87Z" fill="#025597"/>
<path opacity="0.944" fill-rule="evenodd" clip-rule="evenodd" d="M19566.6 1486.06C19981.3 1447.1 20314.1 1591.57 20565 1919.5C20711.5 2181.81 20752.7 2460.44 20688.9 2755.41C20534.2 3255.49 20193.7 3518.65 19667.2 3544.89C19227.9 3524.14 18913.2 3317.75 18722.9 2925.69C18567.1 2476.62 18652.2 2081.88 18978.4 1741.48C19151.6 1600.63 19347.7 1515.49 19566.6 1486.06ZM19628.5 1702.78C20129.4 1729.03 20403 1992.19 20448.9 2492.25C20435.2 2920.32 20223.7 3191.22 19814.3 3304.95C19329.3 3342.42 19037.8 3123.14 18939.7 2647.05C18886.9 2213.07 19059.8 1911.22 19458.2 1741.48C19517.2 1729.17 19574 1716.26 19628.5 1702.78Z" fill="#025597"/>
<path opacity="0.935" fill-rule="evenodd" clip-rule="evenodd" d="M24876.2 1486.07C25016.7 1485.9 25153.6 1506.54 25286.4 1547.99C25295.4 1697.83 25292.7 1847.48 25278.6 1996.91C25258 1996.91 25237.3 1996.91 25216.7 1996.91C25219.8 1809.01 25126.9 1710.98 24938.1 1702.79C24695.7 1723.7 24595 1852.71 24636.2 2089.78C24652.9 2128.42 24673.5 2164.55 24698.1 2198.14C24859 2333.96 25026.6 2460.39 25201.2 2577.4C25393.7 2796.8 25422.1 3036.74 25286.4 3297.21C25100.2 3498.58 24870.6 3573.39 24597.5 3521.67C24512.5 3510.74 24430 3490.11 24349.8 3459.75C24334.1 3451.72 24323.8 3438.81 24318.9 3421.05C24330 3271.46 24340.4 3121.81 24349.8 2972.14C24370.4 2972.14 24391.2 2972.14 24411.8 2972.14C24433.9 3249.34 24583.6 3360.26 24860.7 3304.95C25125.7 3201.43 25179.9 3028.56 25023.2 2786.38C24875.1 2669.75 24722.9 2558.82 24566.6 2453.56C24344.7 2237.37 24306 1992.26 24450.5 1718.27C24561.8 1581.43 24703.6 1504.03 24876.2 1486.07Z" fill="#025597"/>
<path opacity="0.939" fill-rule="evenodd" clip-rule="evenodd" d="M6362.23 1501.56C6523.9 1495.26 6683.86 1508.16 6842.11 1540.25C7117.23 1654.47 7223.02 1858.27 7159.44 2151.71C7107.56 2296.49 7012.09 2402.27 6873.07 2469.05C7165.73 2561.52 7292.14 2760.19 7252.32 3065.02C7175.91 3342.22 6992.73 3489.28 6702.79 3506.2C6454.66 3505.87 6206.98 3508.46 5959.75 3513.94C5959.75 3488.13 5959.75 3462.34 5959.75 3436.54C6094.86 3448.51 6164.52 3386.59 6168.73 3250.78C6179.06 2750.27 6179.06 2249.74 6168.73 1749.23C6169.88 1626.94 6110.54 1570.18 5990.71 1578.95C5990.71 1558.32 5990.71 1537.67 5990.71 1517.03C6117.4 1522.08 6241.24 1516.92 6362.23 1501.56ZM6486.07 1702.79C6835.78 1698.72 6967.35 1863.85 6880.81 2198.15C6766.01 2347 6613.79 2408.92 6424.15 2383.91C6424.15 2162.03 6424.15 1940.15 6424.15 1718.27C6448.9 1722.42 6469.54 1717.25 6486.07 1702.79ZM6424.15 2585.15C6591.8 2564.48 6746.6 2598.03 6888.55 2685.77C7010.85 2824.28 7028.92 2976.49 6942.73 3142.42C6797.25 3291.03 6626.97 3332.31 6431.89 3266.26C6424.15 3039.28 6421.57 2812.24 6424.15 2585.15Z" fill="#025597"/>
<path opacity="0.923" fill-rule="evenodd" clip-rule="evenodd" d="M11130 1501.55C11357.1 1521.78 11584.1 1521.78 11811.1 1501.55C11811.1 1527.35 11811.1 1553.15 11811.1 1578.95C11694.7 1566.16 11630.2 1617.75 11617.6 1733.75C11607.3 1950.46 11607.3 2167.18 11617.6 2383.9C11798.3 2172.34 11978.8 1960.79 12159.4 1749.22C12195.4 1703.09 12218.6 1651.5 12229.1 1594.43C12188.4 1585.26 12147.2 1580.11 12105.3 1578.95C12105.3 1553.15 12105.3 1527.35 12105.3 1501.55C12316.9 1520.79 12528.4 1520.79 12739.9 1501.55C12739.9 1527.35 12739.9 1553.15 12739.9 1578.95C12684.8 1577.52 12633.3 1590.42 12585.1 1617.65C12323.1 1887.38 12075.4 2168.61 11842.1 2461.3C12081.1 2754.53 12328.8 3040.91 12585.1 3320.43C12626.4 3351.39 12667.7 3382.35 12709 3413.31C12748.7 3430.01 12789.9 3437.75 12832.8 3436.53C12832.8 3462.34 12832.8 3488.13 12832.8 3513.93C12605.8 3495.66 12378.8 3495.66 12151.7 3513.93C12151.7 3488.13 12151.7 3462.34 12151.7 3436.53C12255.3 3456.7 12288.8 3420.57 12252.3 3328.17C12040.8 3075.34 11829.2 2822.49 11617.6 2569.66C11603.3 2828.36 11608.5 3086.36 11633.1 3343.65C11675.5 3417.29 11740 3448.25 11826.6 3436.53C11826.6 3462.34 11826.6 3488.13 11826.6 3513.93C11594.4 3494.15 11362.2 3494.15 11130 3513.93C11130 3488.13 11130 3462.34 11130 3436.53C11225.3 3450.71 11289.8 3414.6 11323.5 3328.17C11341.1 3052.75 11348.8 2776.7 11346.7 2500C11348.8 2223.3 11341.1 1947.24 11323.5 1671.83C11281.1 1598.19 11216.6 1567.23 11130 1578.95C11130 1553.15 11130 1527.35 11130 1501.55Z" fill="#025597"/>
<path opacity="0.945" fill-rule="evenodd" clip-rule="evenodd" d="M13715.2 1501.55C13937 1522.19 14158.9 1522.19 14380.8 1501.55C14380.8 1527.35 14380.8 1553.15 14380.8 1578.95C14246.2 1576.79 14181.8 1643.87 14187.3 1780.18C14177 2260.06 14177 2739.94 14187.3 3219.81C14179.7 3379.98 14254.6 3452.21 14411.8 3436.53C14411.8 3462.34 14411.8 3488.13 14411.8 3513.93C14174.4 3494.09 13937 3494.09 13699.7 3513.93C13699.7 3488.13 13699.7 3462.34 13699.7 3436.53C13822 3454.19 13891.7 3402.6 13908.7 3281.73C13939.6 2760.57 13939.6 2239.43 13908.7 1718.27C13888.9 1613.92 13824.4 1567.48 13715.2 1578.95C13715.2 1553.15 13715.2 1527.35 13715.2 1501.55Z" fill="#025597"/>
<path opacity="0.932" fill-rule="evenodd" clip-rule="evenodd" d="M14798.8 1501.55C14838.1 1495.43 14871.7 1505.75 14899.4 1532.51C15296 2016.92 15698.5 2496.8 16106.8 2972.14C16124.6 2792.98 16132.4 2612.37 16130 2430.34C16130.6 2192.67 16122.9 1955.3 16106.8 1718.27C16080.8 1608.42 16011.1 1561.98 15897.8 1578.95C15897.8 1553.15 15897.8 1527.35 15897.8 1501.55C16109.4 1521.72 16320.9 1521.72 16532.5 1501.55C16532.5 1527.35 16532.5 1553.15 16532.5 1578.95C16402.5 1580.05 16343.2 1647.12 16354.5 1780.19C16346.7 2363.24 16344.1 2946.32 16346.7 3529.41C16284.8 3522.12 16235.8 3491.16 16199.7 3436.54C15812.7 2977.29 15425.7 2518.07 15038.7 2058.83C15028.4 2466.46 15028.4 2874.11 15038.7 3281.74C15055.7 3402.6 15125.4 3454.2 15247.7 3436.54C15247.7 3462.34 15247.7 3488.13 15247.7 3513.93C15025.7 3495.16 14803.9 3495.16 14582 3513.93C14582 3488.13 14582 3462.34 14582 3436.54C14724.3 3446.54 14793.9 3379.46 14791 3235.3C14798.8 2657.4 14801.3 2079.49 14798.8 1501.55Z" fill="#025597"/>
<path opacity="0.948" fill-rule="evenodd" clip-rule="evenodd" d="M17167.2 1501.55C17380 1494.65 17591.6 1507.55 17801.9 1540.25C18270.3 1665.81 18502.5 1972.82 18498.5 2461.3C18505.4 2894 18319.7 3211.33 17941.2 3413.32C17806.7 3466.01 17667.3 3496.97 17523.2 3506.19C17249.4 3504.69 16976 3507.28 16702.8 3513.93C16702.8 3488.13 16702.8 3462.34 16702.8 3436.53C16808.8 3452.05 16878.5 3410.76 16911.8 3312.7C16928.8 3042.22 16936.5 2771.32 16935 2500C16936.7 2233.81 16928.9 1968.07 16911.8 1702.79C16904.8 1671.53 16892 1643.16 16873.1 1617.65C16823.2 1597.87 16771.7 1584.97 16718.3 1578.95C16718.3 1558.32 16718.3 1537.67 16718.3 1517.03C16870.7 1522.09 17020.3 1516.93 17167.2 1501.55ZM17244.6 1718.27C17477.2 1698.8 17699.2 1737.49 17910.2 1834.37C18126.9 1991.81 18235.3 2205.96 18235.3 2476.78C18180.8 3070.36 17855.7 3341.26 17260.1 3289.48C17230.7 3286.4 17207.4 3273.49 17190.4 3250.78C17182.7 2745.13 17180 2239.45 17182.7 1733.75C17207.4 1737.9 17228 1732.73 17244.6 1718.27Z" fill="#025597"/>
<path opacity="0.947" fill-rule="evenodd" clip-rule="evenodd" d="M20928.8 1501.55C20979.6 1497.98 21018.3 1518.62 21044.9 1563.47C21436.4 2042.71 21833.7 2517.43 22236.8 2987.62C22251.4 2558.86 22246.1 2130.59 22221.4 1702.79C22191 1600.24 22121.4 1558.95 22012.4 1578.95C22012.4 1553.15 22012.4 1527.35 22012.4 1501.55C22229.1 1522.19 22445.8 1522.19 22662.5 1501.55C22662.5 1527.35 22662.5 1553.15 22662.5 1578.95C22564.1 1564.93 22504.8 1606.2 22484.5 1702.79C22462.2 2311.3 22454.5 2920.17 22461.3 3529.42C22410.5 3532.99 22371.8 3512.34 22345.2 3467.5C21947.8 2997.94 21550.6 2528.38 21153.3 2058.83C21142.9 2450.98 21142.9 2843.15 21153.3 3235.3C21150.3 3379.46 21220 3446.54 21362.2 3436.54C21362.2 3462.34 21362.2 3488.13 21362.2 3513.94C21140.2 3495.16 20918.4 3495.16 20696.6 3513.94C20696.6 3488.13 20696.6 3462.34 20696.6 3436.54C20818.9 3454.2 20888.5 3402.6 20905.6 3281.74C20926 2688.53 20933.7 2095.14 20928.8 1501.55Z" fill="#025597"/>
<path opacity="0.945" fill-rule="evenodd" clip-rule="evenodd" d="M22863.8 1501.55C23255.9 1521.29 23648 1521.29 24040.2 1501.55C24028.5 1656.07 24023.4 1810.87 24024.8 1965.94C23998.9 1965.94 23973.2 1965.94 23947.4 1965.94C23956.8 1878.27 23931.1 1803.44 23870 1741.48C23680.2 1719.21 23489.3 1711.47 23297.2 1718.27C23297.2 1940.14 23297.2 2162.03 23297.2 2383.9C23473.5 2389.83 23648.9 2382.09 23823.5 2360.68C23862.5 2331.53 23883.3 2292.83 23885.4 2244.58C23911.3 2244.58 23937 2244.58 23962.8 2244.58C23942.3 2409.7 23942.3 2574.81 23962.8 2739.94C23937 2739.94 23911.3 2739.94 23885.4 2739.94C23887.8 2685.37 23867.2 2641.5 23823.5 2608.36C23649.1 2586.55 23473.7 2578.81 23297.2 2585.14C23294.6 2791.59 23297.2 2998 23305 3204.33C23308 3231.52 23315.8 3257.31 23328.2 3281.73C23502.9 3299.46 23678.3 3302.03 23854.5 3289.47C23963.2 3256.24 24014.7 3181.41 24009.3 3065.01C24029.9 3065.01 24050.6 3065.01 24071.2 3065.01C24072.4 3214.94 24067.3 3364.58 24055.7 3513.93C23653.3 3496.18 23250.8 3496.18 22848.3 3513.93C22848.3 3488.13 22848.3 3462.34 22848.3 3436.53C22931.1 3448.02 22990.6 3417.06 23026.3 3343.65C23043.7 3065.57 23051.4 2786.93 23049.5 2507.74C23051.4 2228.54 23043.7 1949.91 23026.3 1671.83C22998 1599.3 22943.8 1568.34 22863.8 1578.95C22863.8 1553.15 22863.8 1527.35 22863.8 1501.55Z" fill="#025597"/>
<path opacity="0.912" fill-rule="evenodd" clip-rule="evenodd" d="M9907.1 4009.29C10009.5 4004.49 10107.6 4022.55 10201.2 4063.47C10276.8 4119.09 10312.9 4193.92 10309.6 4287.92C10246.8 4292.94 10184.9 4287.79 10123.8 4272.44C10057 4156.36 9966.68 4135.73 9852.92 4210.53C9841.78 4235.48 9844.35 4258.7 9860.66 4280.18C9966.42 4323.42 10074.8 4359.53 10185.7 4388.54C10324 4475.6 10362.7 4596.86 10301.8 4752.32C10269.5 4811.18 10220.5 4849.87 10154.8 4868.42C10008.7 4909.6 9869.42 4894.12 9736.82 4821.98C9670.91 4755.85 9639.95 4675.87 9643.94 4582.04C9696.71 4585.93 9748.31 4580.76 9798.74 4566.56C9822.13 4669.92 9886.64 4726.69 9992.24 4736.84C10045.7 4731.1 10092.2 4710.45 10131.6 4674.92C10143.3 4639.8 10140.7 4606.25 10123.8 4574.3C10004.4 4535.4 9885.71 4494.13 9767.78 4450.46C9626.48 4320.99 9626.48 4192 9767.78 4063.47C9813.59 4038.64 9860.03 4020.57 9907.1 4009.29Z" fill="#025597"/>
<path opacity="0.918" fill-rule="evenodd" clip-rule="evenodd" d="M24055.7 4009.29C24400 4015.68 24557.4 4191.11 24527.9 4535.6C24474 4800.79 24311.5 4916.89 24040.2 4883.9C23875.7 4853.47 23769.8 4758 23722.9 4597.52C23672.6 4394.23 23721.7 4221.36 23870 4078.95C23930.8 4047.55 23992.7 4024.33 24055.7 4009.29ZM24040.2 4179.57C24116.9 4171.19 24189.2 4184.09 24257 4218.27C24294 4248.48 24317.2 4287.18 24326.6 4334.36C24339.9 4428.56 24334.8 4521.44 24311.1 4613C24192.6 4765.36 24068.7 4770.51 23939.6 4628.48C23894.9 4522.26 23889.8 4413.9 23924.1 4303.4C23950.3 4248.9 23989 4207.62 24040.2 4179.57Z" fill="#025597"/>
<path opacity="0.91" fill-rule="evenodd" clip-rule="evenodd" d="M26486.1 4009.29C26589.3 4001.01 26687.5 4019.07 26780.2 4063.47C26855.6 4118.67 26891.6 4193.49 26888.5 4287.93C26825.9 4292.94 26763.9 4287.79 26702.8 4272.45C26653.3 4172.49 26575.9 4144.12 26470.6 4187.31C26409.6 4241.77 26420 4283.04 26501.5 4311.15C26589.9 4334.54 26677.7 4360.34 26764.7 4388.55C26864.6 4435.82 26916.3 4515.81 26919.5 4628.49C26888.1 4819.66 26774.6 4907.39 26578.9 4891.64C26363.5 4897.94 26244.7 4794.74 26222.9 4582.05C26278.8 4586.52 26333 4581.36 26385.4 4566.57C26430 4715.54 26525.5 4764.55 26671.8 4713.62C26757 4641.07 26746.7 4584.31 26640.9 4543.35C26510.7 4524.12 26394.6 4475.11 26292.6 4396.29C26209.3 4191.4 26273.7 4062.4 26486.1 4009.29Z" fill="#025597"/>
<path opacity="0.921" fill-rule="evenodd" clip-rule="evenodd" d="M5990.71 4024.76C6150.76 4022.19 6310.71 4024.76 6470.59 4032.5C6644.4 4073.05 6703.75 4178.82 6648.61 4349.84C6625.39 4373.06 6602.17 4396.28 6578.95 4419.5C6720.53 4513.7 6748.9 4634.95 6664.09 4783.28C6637.29 4816.05 6603.75 4839.27 6563.47 4852.94C6373.5 4874.89 6182.58 4882.63 5990.71 4876.16C5990.71 4592.36 5990.71 4308.56 5990.71 4024.76ZM6176.47 4179.56C6259.19 4176.99 6341.75 4179.58 6424.15 4187.3C6500.12 4231.78 6505.28 4283.37 6439.63 4342.1C6353.13 4362.05 6265.4 4369.79 6176.47 4365.32C6176.47 4303.4 6176.47 4241.48 6176.47 4179.56ZM6176.47 4520.12C6269.49 4517.55 6362.37 4520.14 6455.11 4527.86C6521.52 4567.04 6534.41 4621.22 6493.81 4690.4C6477.29 4701.1 6459.22 4708.84 6439.63 4713.62C6352.06 4721.34 6264.33 4723.93 6176.47 4721.36C6176.47 4654.28 6176.47 4587.19 6176.47 4520.12Z" fill="#025597"/>
<path opacity="0.914" fill-rule="evenodd" clip-rule="evenodd" d="M7074.3 4024.76C7142.17 4019.72 7209.24 4024.89 7275.54 4040.24C7390.12 4316.99 7498.48 4595.63 7600.62 4876.16C7532.76 4881.2 7465.68 4876.03 7399.38 4860.68C7378.75 4809.08 7358.1 4757.47 7337.46 4705.88C7229.1 4685.24 7120.74 4685.24 7012.38 4705.88C6988.72 4756.25 6968.08 4807.84 6950.46 4860.68C6883.39 4881.31 6816.3 4881.31 6749.23 4860.68C6863.76 4584.11 6972.12 4305.47 7074.3 4024.76ZM7167.18 4272.44C7204.77 4355.54 7240.88 4440.68 7275.54 4527.86C7207.88 4540.68 7140.79 4538.09 7074.3 4520.12C7105.51 4437.16 7136.47 4354.61 7167.18 4272.44Z" fill="#025597"/>
<path opacity="0.917" fill-rule="evenodd" clip-rule="evenodd" d="M7678.02 4024.76C7740.79 4019.75 7802.71 4024.9 7863.78 4040.24C7969.55 4210.52 8075.34 4380.8 8181.12 4551.08C8188.86 4375.72 8191.44 4200.27 8188.86 4024.76C8245.62 4024.76 8302.37 4024.76 8359.13 4024.76C8359.13 4308.56 8359.13 4592.36 8359.13 4876.16C8297 4878.73 8235.08 4876.14 8173.38 4868.42C8065.67 4702.02 7959.88 4534.33 7856.04 4365.32C7848.3 4535.52 7845.71 4705.8 7848.3 4876.16C7791.53 4876.16 7734.78 4876.16 7678.02 4876.16C7678.02 4592.36 7678.02 4308.56 7678.02 4024.76Z" fill="#025597"/>
<path opacity="0.904" fill-rule="evenodd" clip-rule="evenodd" d="M8513.94 4024.77C8575.86 4024.77 8637.78 4024.77 8699.7 4024.77C8697.13 4143.56 8699.7 4262.25 8707.44 4380.81C8813.21 4264.71 8919 4148.61 9024.77 4032.51C9107.33 4022.19 9189.9 4022.19 9272.45 4032.51C9172.1 4145.78 9068.89 4256.72 8962.85 4365.33C9071.21 4530.45 9179.57 4695.56 9287.93 4860.68C9205.38 4881.32 9122.81 4881.32 9040.25 4860.68C8971.68 4738.87 8899.43 4620.19 8823.54 4504.65C8782.5 4537.93 8743.8 4574.04 8707.44 4613.01C8699.71 4700.58 8697.13 4788.3 8699.7 4876.16C8637.78 4876.16 8575.86 4876.16 8513.94 4876.16C8513.94 4592.37 8513.94 4308.56 8513.94 4024.77Z" fill="#025597"/>
<path opacity="0.928" fill-rule="evenodd" clip-rule="evenodd" d="M10448.9 4024.77C10660.5 4024.77 10872 4024.77 11083.6 4024.77C11083.6 4076.36 11083.6 4127.97 11083.6 4179.57C10934 4179.57 10784.3 4179.57 10634.7 4179.57C10634.7 4236.33 10634.7 4293.08 10634.7 4349.84C10774 4349.84 10913.3 4349.84 11052.6 4349.84C11052.6 4401.44 11052.6 4453.05 11052.6 4504.64C10913.3 4504.64 10774 4504.64 10634.7 4504.64C10634.7 4576.89 10634.7 4649.12 10634.7 4721.36C10789.5 4721.36 10944.3 4721.36 11099.1 4721.36C11099.1 4772.96 11099.1 4824.57 11099.1 4876.16C10882.4 4876.16 10665.6 4876.16 10448.9 4876.16C10448.9 4592.37 10448.9 4308.56 10448.9 4024.77Z" fill="#025597"/>
<path opacity="0.937" fill-rule="evenodd" clip-rule="evenodd" d="M11238.4 4024.77C11295.4 4022.21 11352.1 4024.78 11408.7 4032.51C11516.4 4198.9 11622.2 4366.59 11726 4535.6C11733.7 4365.4 11736.3 4195.12 11733.7 4024.77C11790.5 4024.77 11847.3 4024.77 11904 4024.77C11904 4308.56 11904 4592.37 11904 4876.16C11838 4880.76 11773.5 4875.6 11710.5 4860.68C11616.4 4698.14 11518.3 4538.17 11416.4 4380.8C11408.7 4545.84 11406.1 4710.96 11408.7 4876.16C11351.9 4876.16 11295.2 4876.16 11238.4 4876.16C11238.4 4592.37 11238.4 4308.56 11238.4 4024.77Z" fill="#025597"/>
<path opacity="0.917" fill-rule="evenodd" clip-rule="evenodd" d="M12012.4 4024.77C12239.4 4024.77 12466.5 4024.77 12693.5 4024.77C12693.5 4076.36 12693.5 4127.97 12693.5 4179.57C12610.9 4179.57 12528.4 4179.57 12445.8 4179.57C12445.8 4411.76 12445.8 4643.96 12445.8 4876.16C12383.9 4876.16 12322 4876.16 12260.1 4876.16C12260.1 4643.96 12260.1 4411.76 12260.1 4179.57C12177.5 4179.57 12094.9 4179.57 12012.4 4179.57C12012.4 4127.97 12012.4 4076.36 12012.4 4024.77Z" fill="#025597"/>
<path opacity="0.923" fill-rule="evenodd" clip-rule="evenodd" d="M12786.4 4024.76C12972.9 4019.11 13158.6 4026.85 13343.7 4047.98C13468.7 4126.95 13507.4 4237.87 13459.8 4380.8C13416.2 4445.23 13356.9 4489.08 13281.7 4512.38C13319.8 4534.95 13353.4 4563.32 13382.4 4597.52C13433.9 4680.07 13485.6 4762.64 13537.2 4845.2C13651.8 4574.67 13757.6 4301.19 13854.5 4024.76C13922.4 4019.72 13989.4 4024.89 14055.7 4040.24C14173 4315.92 14281.3 4594.56 14380.8 4876.16C14313.7 4876.16 14246.6 4876.16 14179.6 4876.16C14163.6 4815.37 14143 4756.02 14117.6 4698.14C14008.9 4685.27 13900.6 4687.86 13792.6 4705.88C13773.4 4760.92 13752.7 4815.1 13730.7 4868.42C13596.5 4878.74 13462.3 4878.74 13328.2 4868.42C13258.5 4767.8 13188.9 4667.18 13119.2 4566.56C13078 4544.34 13034.2 4528.86 12987.6 4520.12C12972.2 4638.35 12967 4757.02 12972.1 4876.16C12910.2 4876.16 12848.3 4876.16 12786.4 4876.16C12786.4 4592.36 12786.4 4308.56 12786.4 4024.76ZM12972.1 4179.56C13066.5 4173.97 13159.3 4181.71 13250.8 4202.78C13311.8 4277.89 13296.3 4334.65 13204.3 4373.06C13127.1 4380.78 13049.7 4383.37 12972.1 4380.8C12972.1 4313.73 12972.1 4246.64 12972.1 4179.56ZM13947.4 4256.96C13986.1 4341.88 14022.2 4429.59 14055.7 4520.12C13989.2 4538.09 13922.2 4540.68 13854.5 4527.86C13890.1 4439 13921.1 4348.71 13947.4 4256.96Z" fill="#025597"/>
<path opacity="0.944" fill-rule="evenodd" clip-rule="evenodd" d="M15479.9 4024.77C15666.4 4019.12 15852.2 4026.86 16037.2 4047.99C16177.9 4147.9 16206.3 4274.32 16122.3 4427.25C16081 4468.49 16031.9 4496.88 15975.2 4512.39C16008 4529.76 16036.5 4552.98 16060.4 4582.05C16122.8 4672.85 16182 4765.73 16238.4 4860.69C16166.7 4878.67 16094.4 4881.24 16021.7 4868.43C15949.4 4765.22 15877.2 4662.03 15805 4558.83C15755.1 4539.04 15703.6 4526.15 15650.2 4520.13C15650.2 4638.81 15650.2 4757.48 15650.2 4876.17C15593.3 4876.17 15536.7 4876.17 15479.9 4876.17C15479.9 4592.37 15479.9 4308.57 15479.9 4024.77ZM15650.2 4179.57C15732.8 4177 15815.5 4179.59 15897.8 4187.31C15970.9 4209.74 15994.1 4258.75 15967.5 4334.37C15949.4 4355.93 15926.2 4368.84 15897.8 4373.07C15815.5 4380.79 15732.8 4383.38 15650.2 4380.81C15650.2 4313.74 15650.2 4246.65 15650.2 4179.57Z" fill="#025597"/>
<path opacity="0.919" fill-rule="evenodd" clip-rule="evenodd" d="M16315.8 4024.77C16527.4 4024.77 16738.9 4024.77 16950.5 4024.77C16950.5 4076.36 16950.5 4127.97 16950.5 4179.57C16800.8 4179.57 16651.2 4179.57 16501.5 4179.57C16501.5 4236.33 16501.5 4293.08 16501.5 4349.84C16640.9 4349.84 16780.2 4349.84 16919.5 4349.84C16919.5 4401.44 16919.5 4453.05 16919.5 4504.64C16780.2 4504.64 16640.9 4504.64 16501.5 4504.64C16501.5 4576.89 16501.5 4649.12 16501.5 4721.36C16656.3 4721.36 16811.1 4721.36 16965.9 4721.36C16965.9 4772.96 16965.9 4824.57 16965.9 4876.16C16749.2 4876.16 16532.5 4876.16 16315.8 4876.16C16315.8 4592.37 16315.8 4308.56 16315.8 4024.77Z" fill="#025597"/>
<path opacity="0.925" fill-rule="evenodd" clip-rule="evenodd" d="M17089.8 4024.76C17260.8 4018.89 17431.1 4026.63 17600.6 4047.98C17727.9 4124.56 17771.7 4235.5 17732.2 4380.8C17710.4 4459.33 17661.5 4513.51 17585.1 4543.34C17482.7 4560.94 17379.4 4568.68 17275.5 4566.56C17275.5 4669.76 17275.5 4772.95 17275.5 4876.15C17213.6 4876.15 17151.7 4876.15 17089.8 4876.15C17089.8 4592.36 17089.8 4308.55 17089.8 4024.76ZM17275.5 4179.56C17366.1 4169.67 17451.2 4185.15 17531 4226C17565.8 4290.49 17552.9 4344.67 17492.3 4388.54C17420.3 4396.26 17348 4398.85 17275.5 4396.28C17275.5 4324.03 17275.5 4251.8 17275.5 4179.56Z" fill="#025597"/>
<path opacity="0.919" fill-rule="evenodd" clip-rule="evenodd" d="M17863.8 4024.77C17925.7 4024.77 17987.6 4024.77 18049.5 4024.77C18046.9 4226.07 18049.5 4427.31 18057.3 4628.48C18081.7 4696.33 18130.8 4732.45 18204.3 4736.84C18278.5 4732.24 18327.6 4696.13 18351.4 4628.48C18359.1 4427.31 18361.8 4226.07 18359.1 4024.77C18421.1 4024.77 18483 4024.77 18544.9 4024.77C18551.1 4257.65 18543.4 4489.84 18521.7 4721.36C18457.7 4846.28 18354.5 4903.03 18212.1 4891.64C18063.5 4907.66 17955.1 4850.9 17887 4721.36C17864.9 4490.06 17857.1 4257.86 17863.8 4024.77Z" fill="#025597"/>
<path opacity="0.916" fill-rule="evenodd" clip-rule="evenodd" d="M18699.7 4024.76C18859.8 4022.19 19019.7 4024.76 19179.6 4032.5C19363.8 4079.35 19418 4190.29 19342.1 4365.32C19324 4383.39 19306 4401.44 19287.9 4419.5C19412.7 4500.43 19446.1 4611.36 19388.5 4752.32C19364.4 4802.29 19325.7 4835.83 19272.4 4852.94C19082.5 4874.89 18891.5 4882.63 18699.7 4876.16C18699.7 4592.36 18699.7 4308.56 18699.7 4024.76ZM18885.4 4179.56C18968.1 4176.99 19050.8 4179.58 19133.1 4187.3C19209 4231 19214.1 4282.61 19148.6 4342.1C19062.1 4362.05 18974.3 4369.79 18885.4 4365.32C18885.4 4303.4 18885.4 4241.48 18885.4 4179.56ZM18885.4 4520.12C18978.5 4517.55 19071.4 4520.14 19164.1 4527.86C19250.6 4596.3 19245.4 4658.22 19148.6 4713.62C19061 4721.34 18973.4 4723.93 18885.4 4721.36C18885.4 4654.28 18885.4 4587.19 18885.4 4520.12Z" fill="#025597"/>
<path opacity="0.9" fill-rule="evenodd" clip-rule="evenodd" d="M20247.7 4024.77C20309.6 4024.77 20371.5 4024.77 20433.4 4024.77C20433.4 4308.56 20433.4 4592.37 20433.4 4876.16C20371.5 4876.16 20309.6 4876.16 20247.7 4876.16C20247.7 4592.37 20247.7 4308.56 20247.7 4024.77Z" fill="#025597"/>
<path opacity="0.909" fill-rule="evenodd" clip-rule="evenodd" d="M20572.8 4024.77C20634.7 4024.77 20696.6 4024.77 20758.5 4024.77C20755.9 4143.56 20758.5 4262.25 20766.3 4380.81C20872 4264.71 20977.9 4148.61 21083.6 4032.51C21166.1 4022.19 21248.8 4022.19 21331.3 4032.51C21231 4145.78 21127.7 4256.72 21021.7 4365.33C21130 4530.45 21238.4 4695.56 21346.7 4860.68C21269.8 4878.67 21192.4 4881.26 21114.6 4868.42C21037.8 4743.29 20963 4616.86 20890.1 4489.17C20852.5 4538.52 20811.1 4584.96 20766.3 4628.49C20758.5 4710.89 20755.9 4793.44 20758.5 4876.16C20696.6 4876.16 20634.7 4876.16 20572.8 4876.16C20572.8 4592.37 20572.8 4308.56 20572.8 4024.77Z" fill="#025597"/>
<path opacity="0.9" fill-rule="evenodd" clip-rule="evenodd" d="M21733.7 4024.77C21795.7 4024.77 21857.6 4024.77 21919.5 4024.77C21919.5 4308.56 21919.5 4592.37 21919.5 4876.16C21857.6 4876.16 21795.7 4876.16 21733.7 4876.16C21733.7 4592.37 21733.7 4308.56 21733.7 4024.77Z" fill="#025597"/>
<path opacity="0.925" fill-rule="evenodd" clip-rule="evenodd" d="M22058.8 4024.76C22124.9 4020.16 22189.3 4025.32 22252.3 4040.24C22359.4 4207.95 22462.5 4378.23 22561.9 4551.08C22569.7 4375.72 22572.3 4200.27 22569.7 4024.76C22626.5 4024.76 22683.1 4024.76 22739.9 4024.76C22739.9 4308.55 22739.9 4592.36 22739.9 4876.15C22673.8 4880.75 22609.4 4875.6 22546.4 4860.67C22443.2 4695.55 22340.1 4530.44 22236.8 4365.32C22229.1 4535.52 22226.5 4705.8 22229.1 4876.15C22172.3 4876.15 22115.6 4876.15 22058.8 4876.15C22058.8 4592.36 22058.8 4308.55 22058.8 4024.76Z" fill="#025597"/>
<path opacity="0.942" fill-rule="evenodd" clip-rule="evenodd" d="M22910.2 4024.76C23049.7 4022.19 23189 4024.76 23328.2 4032.5C23454.8 4050.63 23539.9 4120.29 23583.6 4241.48C23636.7 4397.97 23631.4 4552.77 23568.1 4705.88C23519.2 4796.08 23444.4 4850.26 23343.7 4868.42C23199.2 4876.16 23054.8 4878.73 22910.2 4876.16C22910.2 4592.36 22910.2 4308.56 22910.2 4024.76ZM23080.5 4179.56C23376 4155.62 23487 4289.78 23413.3 4582.04C23400.5 4656.85 23356.5 4700.72 23281.7 4713.62C23214.9 4721.34 23147.8 4723.93 23080.5 4721.36C23080.5 4540.75 23080.5 4360.17 23080.5 4179.56Z" fill="#025597"/>
<path opacity="0.917" fill-rule="evenodd" clip-rule="evenodd" d="M24644 4024.76C24710.1 4020.16 24774.5 4025.32 24837.5 4040.24C24936.8 4213.09 25039.9 4383.37 25147.1 4551.08C25154.8 4375.72 25157.4 4200.27 25154.8 4024.76C25211.6 4024.76 25268.3 4024.76 25325.1 4024.76C25325.1 4308.55 25325.1 4592.36 25325.1 4876.15C25259 4880.75 25194.6 4875.6 25131.6 4860.67C25028.3 4695.55 24925.2 4530.44 24822 4365.32C24814.2 4535.52 24811.6 4705.8 24814.2 4876.15C24757.4 4876.15 24700.8 4876.15 24644 4876.15C24644 4592.36 24644 4308.55 24644 4024.76Z" fill="#025597"/>
<path opacity="0.954" fill-rule="evenodd" clip-rule="evenodd" d="M25495.4 4024.77C25701.7 4024.77 25908.2 4024.77 26114.6 4024.77C26114.6 4076.36 26114.6 4127.97 26114.6 4179.57C25964.9 4179.57 25815.3 4179.57 25665.6 4179.57C25665.6 4236.33 25665.6 4293.08 25665.6 4349.84C25805 4349.84 25944.3 4349.84 26083.6 4349.84C26083.6 4401.44 26083.6 4453.05 26083.6 4504.64C25944.3 4504.64 25805 4504.64 25665.6 4504.64C25665.6 4576.89 25665.6 4649.12 25665.6 4721.36C25820.4 4721.36 25975.2 4721.36 26130 4721.36C26130 4772.96 26130 4824.57 26130 4876.16C25918.4 4876.16 25707 4876.16 25495.4 4876.16C25495.4 4592.37 25495.4 4308.56 25495.4 4024.77Z" fill="#025597"/>
<path opacity="0.9" fill-rule="evenodd" clip-rule="evenodd" d="M27027.9 4024.77C27089.8 4024.77 27151.7 4024.77 27213.6 4024.77C27213.6 4308.56 27213.6 4592.37 27213.6 4876.16C27151.7 4876.16 27089.8 4876.16 27027.9 4876.16C27027.9 4592.37 27027.9 4308.56 27027.9 4024.77Z" fill="#025597"/>
<path opacity="0.918" fill-rule="evenodd" clip-rule="evenodd" d="M28126.9 4845.2C28126.9 4855.52 28126.9 4865.83 28126.9 4876.16C28059.1 4881.2 27991.9 4876.03 27925.7 4860.68C27905.1 4809.08 27884.4 4757.47 27863.8 4705.88C27755.7 4687.86 27647.4 4685.27 27538.7 4698.14C27516.6 4751.45 27496 4805.63 27476.8 4860.68C27409.8 4881.31 27342.6 4881.31 27275.5 4860.68C27380.8 4585.97 27489.2 4312.49 27600.6 4040.24C27666.9 4024.89 27734.1 4019.72 27801.9 4024.76C27901.4 4302.92 28009.8 4576.39 28126.9 4845.2ZM27693.5 4272.44C27730.8 4355.66 27766.9 4440.8 27801.9 4527.86C27734.2 4540.68 27667.2 4538.09 27600.6 4520.12C27628.6 4435.92 27659.6 4353.35 27693.5 4272.44Z" fill="#025597"/>
<path opacity="0.97" fill-rule="evenodd" clip-rule="evenodd" d="M14473.7 4040.25C14530.4 4040.25 14587.2 4040.25 14644 4040.25C14644 4267.29 14644 4494.32 14644 4721.36C14783.3 4721.36 14922.6 4721.36 15061.9 4721.36C15061.9 4772.96 15061.9 4824.57 15061.9 4876.16C14865.8 4876.16 14669.8 4876.16 14473.7 4876.16C14473.7 4597.52 14473.7 4318.89 14473.7 4040.25Z" fill="#025597"/>
<path opacity="0.914" fill-rule="evenodd" clip-rule="evenodd" d="M19551.1 4040.25C19613 4040.25 19674.9 4040.25 19736.8 4040.25C19736.8 4267.29 19736.8 4494.32 19736.8 4721.36C19876.2 4721.36 20015.5 4721.36 20154.8 4721.36C20154.8 4772.96 20154.8 4824.57 20154.8 4876.16C19953.6 4876.16 19752.3 4876.16 19551.1 4876.16C19551.1 4597.52 19551.1 4318.89 19551.1 4040.25Z" fill="#025597"/>
<path fill-rule="evenodd" clip-rule="evenodd" d="M990.718 3978.33C990.718 4024.77 990.718 4071.21 990.718 4117.65C1646.03 4117.65 2301.35 4117.65 2956.66 4117.65C2298.81 4133.11 1638.35 4138.27 975.238 4133.13C970.396 4078.3 975.557 4026.7 990.718 3978.33Z" fill="#7DA7C9"/>
<path fill-rule="evenodd" clip-rule="evenodd" d="M2972.14 4520.12C2994.1 4534.85 3019.89 4540 3049.54 4535.6C3049.54 4571.72 3049.54 4607.85 3049.54 4643.96C2657.39 4643.96 2265.22 4643.96 1873.07 4643.96C1873.07 4607.85 1873.07 4571.72 1873.07 4535.6C2099.32 4564.69 2217.99 4466.66 2229.1 4241.49C2389.06 4241.49 2549.03 4241.49 2708.98 4241.49C2702.69 4426.07 2790.42 4518.95 2972.14 4520.12Z" fill="#FCFDFD"/>
<path fill-rule="evenodd" clip-rule="evenodd" d="M2972.14 4520.12C3003.1 4520.12 3034.06 4520.12 3065.02 4520.12C3065.02 4566.56 3065.02 4613 3065.02 4659.44C2665.03 4664.56 2267.73 4659.41 1873.07 4643.96C2265.22 4643.96 2657.39 4643.96 3049.54 4643.96C3049.54 4607.85 3049.54 4571.72 3049.54 4535.6C3019.89 4540 2994.1 4534.84 2972.14 4520.12Z" fill="#BFD4E4"/>
</svg>
