<svg width="4922" height="5000" viewBox="0 0 4922 5000" fill="none" xmlns="http://www.w3.org/2000/svg">
<path d="M971.537 2557.4C749.264 2487.41 653.563 2309.26 716.301 2085.28C756.616 1941.34 839.302 1822.62 950.714 1726.29C1016.66 1669.28 1089.71 1618.28 1165.89 1575.97C1233.48 1538.44 1285.51 1491.01 1323.55 1425.31C1381.79 1324.7 1423.05 1219.82 1406.26 1100.43C1403.28 1079.28 1396.02 1058.68 1390.04 1038.03C1378.95 999.704 1353.95 984.33 1313.47 977.419C1250.5 966.667 1184.96 954.379 1128.33 926.722C1031.26 879.317 1010.28 788.222 1069.39 697.974C1094.35 659.869 1124.87 622.152 1161.01 595.151C1392.4 422.242 1652.11 350.697 1939.69 390.349C2018.34 401.194 2086.45 432.914 2134.9 501.306C2147.74 519.435 2173.37 533.26 2195.74 539.121C2342.87 577.677 2491.43 580.709 2639.51 545.209C2665.01 539.097 2695.65 525.51 2709.65 505.431C2767.42 422.55 2851.65 392.921 2944.21 384.381C3209.34 359.923 3452.42 424.767 3668.48 580.539C3712.34 612.161 3751.48 655.594 3780.56 701.357C3841.06 796.568 3809.31 890.054 3706.26 937.209C3605.15 983.473 3496.41 996.729 3389.41 977.263C3276.61 956.742 3165.96 921.965 3056.39 887.083C2998.12 868.536 2942.12 840.152 2888.56 810.051C2674.92 689.982 2448.94 681.335 2215.49 729.056C2118.62 748.859 2024.24 772.701 1939.35 828.161C1896 856.48 1846.12 876.162 1797.08 893.948C1761.28 906.934 1737.1 927.681 1718.23 959.637C1644.3 1084.79 1618.22 1217.56 1655.75 1359.27C1672.01 1420.69 1704.41 1468.31 1770.1 1493.45C1896.15 1541.72 1980.25 1630.41 2007.12 1767.18C2009.38 1778.72 2018.96 1793.13 2029.12 1798.16C2252.97 1909.11 2483.71 1951.28 2726.21 1863.27C2750.77 1854.36 2774.34 1842.72 2798.36 1832.31C2842.18 1813.34 2869.44 1785.12 2887.74 1736.32C2937.76 1602.93 3050.34 1545.27 3182.92 1520.87C3284.8 1502.11 3386.11 1510.85 3485.13 1538.82C3744.84 1612.17 3955.52 1754.74 4090.34 1992.26C4128.94 2060.26 4155.33 2139.99 4167.22 2217.43C4198.63 2422 4062.8 2587.07 3845.17 2621.53C3692.6 2645.69 3547.62 2614.84 3407.25 2556.74C3295.02 2510.28 3191.32 2447.55 3107.07 2360.55C2902.52 2149.32 2649.41 2077.6 2365.96 2098.88C2253.11 2107.36 2140.37 2130.49 2030.22 2157.66C1930.76 2182.2 1844.61 2236.26 1767.23 2306.13C1582.97 2472.48 1371.09 2577.41 1116.96 2576.06C1069.69 2575.81 1022.48 2564.41 971.537 2557.4Z" fill="#1C477A"/>
<path d="M1990.98 1060.49C2083.02 967.824 2194.93 923.651 2318.22 906.38C2466.27 885.641 2610.72 898.674 2746.38 966.602C2779.19 983.028 2814.95 1000.3 2838.76 1026.72C2922.72 1119.89 3031.54 1156.62 3149.75 1173.1C3336.04 1199.07 3521.7 1201.95 3703.14 1141.87C3740.95 1129.35 3777.11 1111.46 3813.29 1094.45C3855.47 1074.62 3882.57 1042.65 3900.05 997.821C3952.86 862.379 4049.62 811.153 4193.9 840.698C4368.72 876.496 4505.87 977.305 4626.12 1102.53C4771.78 1254.23 4881.35 1427.3 4915.85 1639.18C4922.69 1681.19 4924.16 1725.93 4917.93 1767.89C4896.01 1915.46 4784.51 1993.82 4634.92 1970.19C4489.69 1947.25 4370.02 1872.78 4261.38 1778.81C4218.38 1741.61 4175.34 1702.59 4140.72 1657.89C3999.22 1475.2 3805.46 1387.56 3586.09 1344.61C3373.78 1303.03 3169.01 1320.71 2975.47 1424.68C2907.62 1461.13 2839.37 1496.94 2770.3 1531.03C2536.64 1646.4 2304.18 1644.67 2075.72 1517.47C2007.05 1479.23 1952.45 1423.59 1924.53 1348.23C1884.52 1240.22 1912.26 1145.6 1990.98 1060.49Z" fill="#F4C803"/>
<path d="M3038.8 2710.18C3221.2 3144.1 2972.04 3599.66 2516.32 3671.59C2159.31 3727.93 1808.39 3472.86 1748.86 3113.75C1687.06 2740.91 1935.89 2385.29 2300.44 2325.45C2611.56 2274.38 2897.67 2422.6 3038.8 2710.18Z" fill="#1C477A"/>
<path d="M11.1598 1599.09C97.4232 1282.56 286.91 1052.11 568.472 896.119C639.042 857.021 715.845 833.742 798.243 834.599C921.457 835.881 1005.07 906.552 1026.96 1027.17C1044.07 1121.37 1027.38 1212.26 994.737 1299.39C898.287 1556.83 730.856 1756.41 493.535 1895.75C418.46 1939.83 337.392 1969.93 249.119 1973C105.608 1977.99 7.1788 1888.96 0.367951 1745.27C-1.869 1698.07 6.63981 1650.37 11.1598 1599.09Z" fill="#1C477A"/>
<path d="M2868.67 4198.41C2910.78 4060.08 2963.37 4015.65 3110.47 4011.61C3266.06 4007.34 3421.93 4007.89 3577.55 4011.58C3698.25 4014.45 3748.49 4046.74 3807.56 4144.98C3829.71 4034.68 3908 4009.55 4002.59 4009.48C4199.95 4009.34 4397.3 4009.37 4594.65 4009.49C4606.75 4009.49 4618.85 4010.86 4630.85 4011.6C4629.45 4097.54 4567.95 4157.49 4479 4158.2C4337.16 4159.34 4195.3 4158.61 4053.46 4158.6C4016.49 4158.59 3985.55 4166.11 3980.27 4210.95C3973.89 4265.16 3993.1 4289.56 4048.71 4290C4181.29 4291.06 4313.9 4290.34 4446.49 4290.52C4464.97 4290.55 4483.56 4290.47 4501.91 4292.31C4617.25 4303.85 4662.92 4354.07 4663.64 4469.47C4663.81 4495.68 4664.15 4521.91 4663.49 4548.1C4660.84 4652 4608.49 4706.36 4504 4713.7C4485.57 4714.99 4467.02 4715.03 4448.53 4715.03C4197.21 4715.11 3945.89 4715.09 3694.58 4715.09C3679.37 4715.09 3664.16 4715.09 3642.71 4715.09C3642.71 4695.93 3642.72 4679.63 3642.71 4663.34C3642.65 4541.53 3643.92 4419.71 3642.11 4297.93C3640.66 4200.65 3613.32 4174.52 3516.77 4173.79C3404.23 4172.94 3291.67 4172.92 3179.12 4173.8C3077.16 4174.59 3047.18 4204.11 3045.98 4307.03C3044.6 4424.19 3045.62 4541.38 3045.6 4658.56C3045.6 4675.3 3045.6 4692.05 3045.6 4711.93C2986.56 4711.93 2930.3 4711.93 2867.06 4711.93C2867.06 4622.41 2867.06 4532.09 2866.98 4433.28C2867.49 4349.33 2868.08 4273.87 2868.67 4198.41ZM4361.56 4565.88C4378.48 4565.87 4395.42 4566.03 4412.34 4565.82C4476.5 4565.02 4489.47 4552.46 4489.82 4491.13C4490.16 4429.62 4477.41 4416.64 4412.77 4416.43C4281.96 4416.01 4151.14 4415.89 4020.32 4416.43C3945.18 4416.74 3873.26 4409.73 3823.27 4338.59C3823.27 4417.42 3823.27 4490.37 3823.27 4565.88C4001.88 4565.88 4177.16 4565.88 4361.56 4565.88Z" fill="#1F497B"/>
<path d="M1987.95 4520.03C1950.21 4662.81 1896.74 4708.65 1747.73 4712.9C1605.99 4716.94 1464.07 4714.6 1322.23 4715.06C1305.61 4715.11 1288.98 4715.06 1266.6 4715.06C1266.6 4774.01 1266.74 4828.95 1266.57 4883.88C1266.31 4965.43 1232.56 4999.6 1152.23 4999.96C1132.54 5000.04 1112.84 4999.97 1088.57 4999.97C1088.57 4979.66 1088.57 4963.2 1088.57 4946.74C1088.57 4726.26 1088.5 4505.77 1088.67 4285.29C1088.69 4260.64 1088.86 4235.89 1091.06 4211.37C1101.11 4099.38 1157.24 4033.61 1268.9 4020.08C1355.68 4009.55 1444.09 4010.35 1531.79 4010.03C1619.52 4009.71 1707.54 4010.69 1794.92 4017.62C1892.06 4025.32 1958.28 4076.39 1985.36 4180.4C1988.22 4297.51 1988.08 4408.77 1987.95 4520.03ZM1811.93 4338.81C1810.27 4308.1 1810.33 4277.18 1806.56 4246.74C1800.65 4198.93 1771.01 4169.12 1723.98 4168.12C1600.78 4165.49 1477.46 4165.63 1354.26 4167.96C1309.48 4168.81 1274.82 4196.18 1273.2 4241.95C1269.46 4347.24 1272.01 4452.77 1272.01 4561.69C1340.85 4561.69 1408.45 4562.12 1476.04 4561.57C1556.15 4560.93 1636.41 4562.14 1716.3 4557.44C1777.08 4553.85 1801.84 4528.14 1808.64 4467.92C1813.12 4428.29 1811.06 4387.91 1811.93 4338.81Z" fill="#1E487B"/>
<path d="M1989.89 4523.63C1988.09 4408.77 1988.22 4297.51 1988.41 4182.01C1990.83 4175.93 1994.77 4174.49 1995.37 4172.2C2027.61 4048.1 2122.63 4013.7 2234.39 4011.06C2381.89 4007.58 2529.63 4006.3 2677.07 4010.79C2813.07 4014.92 2851.16 4081.95 2867.79 4193.79C2868.08 4273.87 2867.49 4349.33 2866.11 4428.86C2669.82 4432.93 2474.33 4432.93 2279.51 4432.93C2268.35 4350.31 2323.47 4288.96 2409.75 4286.55C2486.79 4284.4 2563.93 4285.93 2641.02 4285.85C2656.15 4285.83 2671.29 4285.85 2691.97 4285.85C2691.97 4260.59 2692.17 4239.58 2691.92 4218.58C2691.45 4177.83 2671.7 4154.19 2630.02 4154.13C2508.24 4153.93 2386.4 4152.46 2264.71 4156.01C2194.62 4158.05 2167.81 4188.62 2166 4257.95C2164.31 4322.66 2164.48 4387.48 2165.87 4452.21C2167.41 4523.74 2194.91 4555.32 2266.69 4557.36C2391.48 4560.9 2516.41 4559.32 2641.29 4559.92C2715.91 4560.29 2772.67 4590.02 2802.8 4660.86C2809.12 4675.73 2810.29 4692.79 2814.66 4712.57C2796.29 4713.59 2782.76 4714.99 2769.24 4715C2604.25 4715.12 2439.27 4715.15 2274.29 4714.89C2251.18 4714.85 2227.99 4714.17 2204.99 4712.06C2076.02 4700.19 2020.75 4652.02 1989.89 4523.63Z" fill="#F4C905"/>
<path d="M2405.37 381.056C2298.76 377.225 2198.17 364.462 2104.77 319.739C2049.91 293.471 1992.04 262.994 1991.11 193.068C1990.18 122.697 2046.65 88.5251 2102.66 65.4329C2314.57 -21.94 2528.26 -21.9887 2739.94 66.3563C2794.22 89.0141 2848.59 121.815 2849.15 190.647C2849.74 262.022 2792.56 292.424 2738.02 318.663C2634.54 368.455 2523.12 380.689 2405.37 381.056Z" fill="#1E487B"/>
</svg>
