<svg width="563" height="100" viewBox="0 0 563 100" fill="none" xmlns="http://www.w3.org/2000/svg">
<path opacity="0.946" fill-rule="evenodd" clip-rule="evenodd" d="M162.226 29.4121C162.742 29.4121 163.258 29.4121 163.774 29.4121C167.902 40.7103 172.185 51.9589 176.623 63.1582C177.369 64.7555 178.195 66.3034 179.099 67.8022C181.736 69.4251 183.284 68.7025 183.743 65.635C184.15 53.7709 184.305 41.9031 184.208 30.0313C185.225 29.9599 185.999 30.3727 186.53 31.2697C194.359 40.8545 202.306 50.349 210.369 59.7527C210.659 51.1774 210.556 42.6121 210.059 34.0561C209.452 32.005 208.058 31.1793 205.879 31.5793C205.879 31.0633 205.879 30.5473 205.879 30.0313C210.214 30.4352 214.549 30.4352 218.883 30.0313C218.883 30.5473 218.883 31.0633 218.883 31.5793C216.913 31.2988 215.726 32.1242 215.322 34.0561C214.877 46.2264 214.722 58.4038 214.858 70.5886C213.841 70.6601 213.067 70.2471 212.536 69.3502C204.589 59.9592 196.643 50.5678 188.697 41.1768C188.49 49.0199 188.49 56.8632 188.697 64.7062C188.638 67.5895 190.032 68.931 192.876 68.731C192.876 69.2471 192.876 69.7629 192.876 70.279C184.931 70.2697 176.984 70.2697 169.037 70.279C169.037 69.7629 169.037 69.2471 169.037 68.731C170.522 69.0211 171.554 68.505 172.133 67.183C171.39 64.3332 170.461 61.5468 169.347 58.8239C164.806 58.4112 160.266 58.4112 155.725 58.8239C154.518 61.4651 153.589 64.1997 152.938 67.0282C152.957 67.4728 153.06 67.8855 153.248 68.2666C154.144 68.6223 155.072 68.7771 156.034 68.731C156.034 69.2471 156.034 69.7629 156.034 70.279C151.905 69.9137 147.777 69.9137 143.65 70.279C143.65 69.7629 143.65 69.2471 143.65 68.731C144.556 68.7434 145.381 68.4855 146.127 67.957C147.096 66.7954 147.87 65.5053 148.449 64.087C153.196 52.5793 157.788 41.0208 162.226 29.4121ZM162.536 40.248C164.281 44.9647 166.036 49.7118 167.799 54.4895C164.29 54.9022 160.781 54.9022 157.273 54.4895C159.152 49.779 160.906 45.0319 162.536 40.248Z" fill="white"/>
<path opacity="0.944" fill-rule="evenodd" clip-rule="evenodd" d="M542.412 29.4125C543.26 29.2468 543.827 29.5564 544.115 30.3413C548.468 41.8307 552.904 53.2858 557.427 64.7066C557.957 66.0605 558.731 67.2474 559.749 68.267C560.443 68.5694 561.164 68.7242 561.917 68.7314C561.917 69.2474 561.917 69.7632 561.917 70.2793C557.585 69.9456 553.251 69.9456 548.913 70.2793C548.913 69.7632 548.913 69.2474 548.913 68.7314C549.644 68.7818 550.365 68.7304 551.081 68.5766C551.774 68.3493 552.186 67.8849 552.319 67.1834C551.511 64.2431 550.582 61.3533 549.533 58.5146C544.988 58.4115 540.446 58.5149 535.91 58.8242C534.629 61.388 533.7 64.0713 533.124 66.8738C533.139 67.3691 533.242 67.8335 533.434 68.267C534.328 68.6227 535.257 68.7775 536.22 68.7314C536.22 69.2474 536.22 69.7632 536.22 70.2793C527.861 70.2629 519.502 70.2629 511.143 70.2793C511.143 69.7632 511.143 69.2474 511.143 68.7314C513.034 69.0171 514.325 68.2948 515.013 66.5642C515.359 61.053 515.514 55.532 515.477 50.0007C515.514 44.5716 515.359 39.1536 515.013 33.7468C514.338 32.0183 513.047 31.2961 511.143 31.5796C511.143 31.0636 511.143 30.5477 511.143 30.0317C515.684 30.4362 520.223 30.4362 524.765 30.0317C524.765 30.5477 524.765 31.0636 524.765 31.5796C522.499 31.21 521.208 32.1388 520.895 34.366C520.282 44.7886 520.282 55.2118 520.895 65.6354C521.526 68.505 523.229 69.3824 526.003 68.267C526.892 67.1595 527.666 65.9725 528.325 64.7066C533.115 52.9716 537.808 41.2069 542.412 29.4125ZM542.722 40.558C544.526 45.1471 546.282 49.7911 547.985 54.4899C544.483 54.7992 540.972 54.9022 537.458 54.7995C539.09 50.0066 540.845 45.2595 542.722 40.558Z" fill="white"/>
<path opacity="0.944" fill-rule="evenodd" clip-rule="evenodd" d="M391.333 29.7218C399.627 28.9426 406.284 31.832 411.302 38.3905C414.231 43.6366 415.054 49.2094 413.779 55.1088C410.686 65.1103 403.875 70.3735 393.345 70.8983C384.559 70.4834 378.265 66.3555 374.46 58.5144C371.342 49.5329 373.045 41.6382 379.568 34.8301C383.033 32.0131 386.955 30.3104 391.333 29.7218ZM392.571 34.0562C402.59 34.5812 408.061 39.8444 408.98 49.8456C408.705 58.4069 404.476 63.8249 396.287 66.0995C386.587 66.849 380.757 62.4633 378.794 52.9416C377.739 44.262 381.197 38.2249 389.166 34.8301C390.345 34.584 391.482 34.3258 392.571 34.0562Z" fill="white"/>
<path opacity="0.935" fill-rule="evenodd" clip-rule="evenodd" d="M497.526 29.7207C500.337 29.7173 503.074 30.1301 505.73 30.9591C505.91 33.956 505.857 36.9489 505.575 39.9374C505.164 39.9374 504.749 39.9374 504.337 39.9374C504.399 36.1795 502.541 34.2189 498.764 34.0551C493.916 34.4734 491.904 37.0535 492.727 41.795C493.061 42.5678 493.473 43.2904 493.966 43.9622C497.182 46.6786 500.535 49.2071 504.027 51.5473C507.876 55.9353 508.445 60.734 505.73 65.9436C502.006 69.9709 497.414 71.4672 491.953 70.4328C490.253 70.2142 488.603 69.8015 487 69.1944C486.684 69.0337 486.479 68.7755 486.38 68.4204C486.603 65.4285 486.811 62.4356 487 59.4421C487.411 59.4421 487.826 59.4421 488.238 59.4421C488.681 64.986 491.674 67.2046 497.216 66.0984C502.517 64.0278 503.6 60.5706 500.467 55.7269C497.504 53.3944 494.461 51.1758 491.334 49.0706C486.897 44.7467 486.123 39.8446 489.012 34.3647C491.238 31.6278 494.074 30.0799 497.526 29.7207Z" fill="white"/>
<path opacity="0.939" fill-rule="evenodd" clip-rule="evenodd" d="M127.245 30.031C130.478 29.905 133.677 30.1631 136.842 30.805C142.345 33.0892 144.46 37.1653 143.189 43.0341C142.151 45.9297 140.242 48.0452 137.461 49.3808C143.315 51.2304 145.843 55.2037 145.046 61.3003C143.518 66.8443 139.855 69.7855 134.056 70.1239C129.093 70.1174 124.14 70.1691 119.195 70.2787C119.195 69.7626 119.195 69.2468 119.195 68.7307C121.897 68.97 123.29 67.7316 123.375 65.0155C123.581 55.0053 123.581 44.9948 123.375 34.9845C123.398 32.5387 122.211 31.4034 119.814 31.579C119.814 31.1663 119.814 30.7534 119.814 30.3406C122.348 30.4414 124.825 30.3382 127.245 30.031ZM129.721 34.0558C136.716 33.9743 139.347 37.2768 137.616 43.9629C135.32 46.94 132.276 48.1784 128.483 47.678C128.483 43.2406 128.483 38.8028 128.483 34.3653C128.978 34.4483 129.391 34.3449 129.721 34.0558ZM128.483 51.7028C131.836 51.2895 134.932 51.9604 137.771 53.7152C140.217 56.4855 140.578 59.5297 138.855 62.8483C135.945 65.8205 132.539 66.6462 128.638 65.3251C128.483 60.7855 128.431 56.2446 128.483 51.7028Z" fill="white"/>
<path opacity="0.923" fill-rule="evenodd" clip-rule="evenodd" d="M222.6 30.0312C227.141 30.4358 231.682 30.4358 236.222 30.0312C236.222 30.5473 236.222 31.0632 236.222 31.5792C233.893 31.3235 232.603 32.3554 232.352 34.6752C232.145 39.0096 232.145 43.3439 232.352 47.6783C235.964 43.447 239.576 39.2161 243.188 34.9848C243.907 34.0622 244.372 33.0303 244.581 31.8888C243.768 31.7056 242.942 31.6025 242.104 31.5792C242.104 31.0632 242.104 30.5473 242.104 30.0312C246.337 30.416 250.568 30.416 254.798 30.0312C254.798 30.5473 254.798 31.0632 254.798 31.5792C253.696 31.5508 252.664 31.8086 251.702 32.3532C246.46 37.748 241.507 43.3724 236.841 49.2263C241.621 55.091 246.575 60.8186 251.702 66.409C252.527 67.0282 253.353 67.6473 254.179 68.2665C254.972 68.6006 255.797 68.7554 256.655 68.7309C256.655 69.247 256.655 69.7628 256.655 70.2789C252.116 69.9136 247.575 69.9136 243.033 70.2789C243.033 69.7628 243.033 69.247 243.033 68.7309C245.104 69.1343 245.775 68.4117 245.045 66.5638C240.814 61.5071 236.583 56.4501 232.352 51.3935C232.066 56.5675 232.169 61.7275 232.662 66.8734C233.51 68.3461 234.8 68.9653 236.532 68.7309C236.532 69.247 236.532 69.7628 236.532 70.2789C231.888 69.8833 227.244 69.8833 222.6 70.2789C222.6 69.7628 222.6 69.247 222.6 68.7309C224.505 69.0145 225.794 68.2922 226.47 66.5638C226.82 61.0554 226.975 55.5343 226.934 50.0003C226.975 44.4662 226.82 38.9452 226.47 33.4368C225.622 31.9641 224.331 31.3449 222.6 31.5792C222.6 31.0632 222.6 30.5473 222.6 30.0312Z" fill="white"/>
<path opacity="0.945" fill-rule="evenodd" clip-rule="evenodd" d="M274.305 30.0312C278.743 30.444 283.18 30.444 287.618 30.0312C287.618 30.5473 287.618 31.0632 287.618 31.5792C284.927 31.5362 283.637 32.8777 283.748 35.604C283.541 45.2015 283.541 54.7991 283.748 64.3966C283.597 67.6 285.093 69.0446 288.237 68.7309C288.237 69.247 288.237 69.7628 288.237 70.2789C283.489 69.882 278.742 69.882 273.996 70.2789C273.996 69.7628 273.996 69.247 273.996 68.7309C276.442 69.0842 277.835 68.0523 278.175 65.635C278.794 55.2117 278.794 44.7888 278.175 34.3656C277.781 32.2786 276.491 31.3498 274.305 31.5792C274.305 31.0632 274.305 30.5473 274.305 30.0312Z" fill="white"/>
<path opacity="0.932" fill-rule="evenodd" clip-rule="evenodd" d="M295.975 30.0303C296.763 29.9078 297.434 30.1142 297.988 30.6495C305.921 40.3377 313.969 49.9353 322.136 59.4421C322.493 55.8588 322.647 52.2467 322.601 48.6062C322.613 43.8526 322.458 39.1052 322.136 34.3647C321.616 32.1678 320.223 31.239 317.957 31.5783C317.957 31.0623 317.957 30.5463 317.957 30.0303C322.189 30.4338 326.418 30.4338 330.65 30.0303C330.65 30.5463 330.65 31.0623 330.65 31.5783C328.05 31.6003 326.864 32.9418 327.09 35.6031C326.935 47.2641 326.883 58.9257 326.935 70.5876C325.697 70.4418 324.715 69.8226 323.994 68.73C316.254 59.5452 308.514 50.3607 300.774 41.1758C300.568 49.3285 300.568 57.4814 300.774 65.634C301.114 68.0514 302.507 69.0833 304.954 68.73C304.954 69.2461 304.954 69.7619 304.954 70.278C300.515 69.9025 296.078 69.9025 291.641 70.278C291.641 69.7619 291.641 69.2461 291.641 68.73C294.486 68.93 295.879 67.5885 295.821 64.7052C295.975 53.1473 296.027 41.5891 295.975 30.0303Z" fill="white"/>
<path opacity="0.948" fill-rule="evenodd" clip-rule="evenodd" d="M343.345 30.0302C347.602 29.8922 351.834 30.1503 356.038 30.8042C365.406 33.3153 370.05 39.4556 369.97 49.2252C370.109 57.8791 366.394 64.2259 358.824 68.2655C356.134 69.3194 353.348 69.9386 350.465 70.1231C344.989 70.093 339.521 70.1447 334.057 70.2779C334.057 69.7618 334.057 69.246 334.057 68.7299C336.177 69.0401 337.571 68.2144 338.236 66.2531C338.577 60.8435 338.732 55.4255 338.701 49.9992C338.735 44.6754 338.58 39.3605 338.236 34.055C338.097 33.4299 337.84 32.8624 337.462 32.3522C336.465 31.9565 335.434 31.6986 334.366 31.5782C334.366 31.1655 334.366 30.7526 334.366 30.3398C337.416 30.4411 340.406 30.3379 343.345 30.0302ZM344.893 34.3646C349.546 33.9751 353.985 34.7491 358.205 36.6865C362.54 39.8355 364.707 44.1184 364.707 49.5348C363.617 61.4064 357.115 66.8243 345.202 65.7887C344.614 65.7271 344.15 65.4689 343.809 65.0147C343.654 54.9017 343.602 44.7881 343.654 34.6742C344.15 34.7571 344.561 34.6537 344.893 34.3646Z" fill="white"/>
<path opacity="0.947" fill-rule="evenodd" clip-rule="evenodd" d="M418.578 30.0313C419.594 29.9599 420.368 30.3727 420.9 31.2697C428.73 40.8546 436.677 50.349 444.739 59.7527C445.03 51.1775 444.925 42.6121 444.429 34.0561C443.823 32.005 442.429 31.1793 440.25 31.5793C440.25 31.0633 440.25 30.5473 440.25 30.0313C444.584 30.4441 448.919 30.4441 453.253 30.0313C453.253 30.5473 453.253 31.0633 453.253 31.5793C451.284 31.2988 450.098 32.1242 449.693 34.0561C449.247 46.2264 449.092 58.4038 449.228 70.5886C448.213 70.6601 447.439 70.2471 446.906 69.3502C438.959 59.9592 431.015 50.5679 423.067 41.1769C422.86 49.0199 422.86 56.8632 423.067 64.7063C423.008 67.5895 424.402 68.931 427.247 68.731C427.247 69.2471 427.247 69.7629 427.247 70.279C422.807 69.9035 418.371 69.9035 413.934 70.279C413.934 69.7629 413.934 69.2471 413.934 68.731C416.38 69.0843 417.773 68.0524 418.114 65.6351C418.522 53.771 418.677 41.9032 418.578 30.0313Z" fill="white"/>
<path opacity="0.945" fill-rule="evenodd" clip-rule="evenodd" d="M457.273 30.0312C465.115 30.4261 472.957 30.4261 480.802 30.0312C480.567 33.1217 480.465 36.2176 480.493 39.3192C479.976 39.3192 479.462 39.3192 478.945 39.3192C479.134 37.5656 478.62 36.069 477.397 34.83C473.601 34.3845 469.784 34.2297 465.942 34.3656C465.942 38.8031 465.942 43.2408 465.942 47.6783C469.468 47.7969 472.976 47.6421 476.468 47.2139C477.248 46.6309 477.663 45.8569 477.706 44.8919C478.223 44.8919 478.737 44.8919 479.254 44.8919C478.843 48.1944 478.843 51.4966 479.254 54.7991C478.737 54.7991 478.223 54.7991 477.706 54.7991C477.753 53.7077 477.341 52.8303 476.468 52.1675C472.979 51.7312 469.471 51.5765 465.942 51.7031C465.889 55.8322 465.942 59.9604 466.097 64.087C466.158 64.6306 466.313 65.1464 466.561 65.635C470.056 65.9895 473.564 66.0408 477.087 65.7898C479.261 65.1251 480.292 63.6285 480.183 61.3006C480.595 61.3006 481.01 61.3006 481.422 61.3006C481.446 64.2991 481.344 67.2919 481.112 70.2789C473.062 69.9238 465.013 69.9238 456.963 70.2789C456.963 69.7628 456.963 69.247 456.963 68.7309C458.62 68.9607 459.809 68.3415 460.524 66.8734C460.871 61.3117 461.025 55.739 460.988 50.1551C461.025 44.5712 460.871 38.9984 460.524 33.4368C459.957 31.9864 458.874 31.3672 457.273 31.5792C457.273 31.0632 457.273 30.5473 457.273 30.0312Z" fill="white"/>
<path opacity="0.912" fill-rule="evenodd" clip-rule="evenodd" d="M198.139 80.185C200.188 80.0891 202.148 80.4504 204.021 81.2686C205.532 82.381 206.255 83.8776 206.189 85.7578C204.933 85.8581 203.695 85.755 202.474 85.4482C201.137 83.1265 199.331 82.7138 197.056 84.2098C196.833 84.7089 196.884 85.1733 197.21 85.603C199.326 86.4677 201.493 87.19 203.712 87.7702C206.477 89.5113 207.251 91.9364 206.034 95.0457C205.388 96.2228 204.407 96.9968 203.093 97.3677C200.172 98.1912 197.386 97.8816 194.734 96.4389C193.415 95.1163 192.796 93.5166 192.876 91.6401C193.931 91.7178 194.963 91.6144 195.972 91.3305C196.44 93.3977 197.73 94.533 199.842 94.7361C200.912 94.6213 201.84 94.2082 202.628 93.4977C202.863 92.7952 202.811 92.1243 202.474 91.4853C200.085 90.7073 197.711 89.8819 195.353 89.0086C192.527 86.4191 192.527 83.8392 195.353 81.2686C196.269 80.772 197.198 80.4107 198.139 80.185Z" fill="white"/>
<path opacity="0.918" fill-rule="evenodd" clip-rule="evenodd" d="M481.113 80.1855C487.998 80.3134 491.147 83.8221 490.555 90.7119C489.478 96.0156 486.227 98.3376 480.803 97.6778C477.512 97.0691 475.394 95.1599 474.456 91.9503C473.45 87.8843 474.432 84.427 477.397 81.5787C478.614 80.9509 479.853 80.4865 481.113 80.1855ZM480.803 83.5911C482.336 83.4236 483.781 83.6815 485.137 84.3651C485.877 84.9694 486.342 85.7434 486.531 86.6871C486.797 88.571 486.695 90.4286 486.221 92.2599C483.849 95.3069 481.373 95.41 478.791 92.5694C477.896 90.445 477.794 88.2778 478.481 86.0679C479.004 84.9778 479.778 84.1521 480.803 83.5911Z" fill="white"/>
<path opacity="0.91" fill-rule="evenodd" clip-rule="evenodd" d="M529.719 80.1855C531.784 80.0199 533.747 80.3812 535.601 81.2691C537.109 82.3732 537.83 83.8694 537.768 85.7583C536.514 85.8586 535.276 85.7555 534.053 85.4487C533.062 83.4496 531.514 82.8821 529.409 83.7459C528.189 84.8351 528.397 85.6605 530.028 86.2227C531.796 86.6905 533.552 87.2066 535.291 87.7707C537.288 88.7162 538.322 90.3159 538.387 92.5694C537.759 96.393 535.49 98.1475 531.576 97.8326C527.267 97.9586 524.892 95.8945 524.456 91.6406C525.573 91.7301 526.657 91.627 527.706 91.331C528.598 94.3106 530.508 95.2908 533.434 94.2722C535.137 92.8211 534.932 91.6858 532.815 90.8666C530.211 90.4821 527.889 89.5019 525.849 87.9255C524.183 83.8276 525.471 81.2478 529.719 80.1855Z" fill="white"/>
<path opacity="0.921" fill-rule="evenodd" clip-rule="evenodd" d="M119.816 80.4958C123.017 80.4444 126.216 80.4958 129.413 80.6506C132.89 81.4615 134.077 83.5769 132.974 86.9974C132.509 87.4618 132.045 87.9262 131.581 88.3906C134.412 90.2745 134.98 92.6995 133.283 95.6661C132.748 96.3215 132.077 96.7859 131.271 97.0593C127.472 97.4983 123.653 97.6531 119.816 97.5237C119.816 91.8478 119.816 86.1717 119.816 80.4958ZM123.531 83.5918C125.186 83.5404 126.837 83.5921 128.485 83.7466C130.004 84.6361 130.107 85.668 128.794 86.8426C127.064 87.2416 125.31 87.3964 123.531 87.307C123.531 86.0686 123.531 84.8302 123.531 83.5918ZM123.531 90.4029C125.391 90.3516 127.249 90.4033 129.104 90.5577C130.432 91.3413 130.69 92.4249 129.878 93.8085C129.547 94.0224 129.186 94.1772 128.794 94.2729C127.043 94.4274 125.288 94.4791 123.531 94.4277C123.531 93.0862 123.531 91.7444 123.531 90.4029Z" fill="white"/>
<path opacity="0.914" fill-rule="evenodd" clip-rule="evenodd" d="M141.486 80.4944C142.844 80.3935 144.185 80.4969 145.511 80.804C147.803 86.339 149.97 91.9118 152.013 97.5223C150.655 97.6232 149.314 97.5198 147.988 97.2127C147.575 96.1808 147.162 95.1486 146.75 94.1167C144.582 93.704 142.415 93.704 140.248 94.1167C139.775 95.1242 139.362 96.156 139.01 97.2127C137.668 97.6254 136.326 97.6254 134.985 97.2127C137.276 91.6814 139.443 86.1087 141.486 80.4944ZM143.344 85.448C144.096 87.1099 144.818 88.8127 145.511 90.5564C144.158 90.8127 142.816 90.761 141.486 90.4016C142.111 88.7424 142.73 87.0913 143.344 85.448Z" fill="white"/>
<path opacity="0.917" fill-rule="evenodd" clip-rule="evenodd" d="M153.558 80.4961C154.814 80.3958 156.052 80.4989 157.273 80.8057C159.389 84.2113 161.505 87.6168 163.62 91.0224C163.775 87.5153 163.827 84.0063 163.775 80.4961C164.91 80.4961 166.045 80.4961 167.18 80.4961C167.18 86.1719 167.18 91.8481 167.18 97.5239C165.938 97.5753 164.699 97.5236 163.465 97.3691C161.311 94.0413 159.195 90.6874 157.118 87.3072C156.964 90.7113 156.912 94.1168 156.964 97.5239C155.828 97.5239 154.693 97.5239 153.558 97.5239C153.558 91.8481 153.558 86.1719 153.558 80.4961Z" fill="white"/>
<path opacity="0.904" fill-rule="evenodd" clip-rule="evenodd" d="M170.276 80.4962C171.515 80.4962 172.753 80.4962 173.992 80.4962C173.94 82.872 173.992 85.2457 174.146 87.6169C176.262 85.2949 178.378 82.973 180.493 80.651C182.144 80.4445 183.796 80.4445 185.447 80.651C183.44 82.9163 181.375 85.1352 179.255 87.3073C181.422 90.6098 183.589 93.912 185.756 97.2144C184.105 97.6271 182.454 97.6271 180.803 97.2144C179.431 94.7782 177.986 92.4045 176.468 90.0937C175.648 90.7593 174.874 91.4816 174.146 92.2609C173.992 94.0123 173.94 95.7668 173.992 97.524C172.753 97.524 171.515 97.524 170.276 97.524C170.276 91.8482 170.276 86.172 170.276 80.4962Z" fill="white"/>
<path opacity="0.928" fill-rule="evenodd" clip-rule="evenodd" d="M208.98 80.4961C213.212 80.4961 217.443 80.4961 221.674 80.4961C221.674 81.528 221.674 82.5602 221.674 83.5921C218.681 83.5921 215.689 83.5921 212.696 83.5921C212.696 84.7274 212.696 85.8623 212.696 86.9976C215.482 86.9976 218.268 86.9976 221.055 86.9976C221.055 88.0295 221.055 89.0617 221.055 90.0936C218.268 90.0936 215.482 90.0936 212.696 90.0936C212.696 91.5385 212.696 92.9831 212.696 94.428C215.792 94.428 218.888 94.428 221.984 94.428C221.984 95.4599 221.984 96.4921 221.984 97.524C217.649 97.524 213.315 97.524 208.98 97.524C208.98 91.8481 208.98 86.1719 208.98 80.4961Z" fill="white"/>
<path opacity="0.937" fill-rule="evenodd" clip-rule="evenodd" d="M224.77 80.4957C225.91 80.4446 227.045 80.496 228.176 80.6505C230.33 83.9783 232.446 87.3322 234.522 90.7124C234.677 87.3083 234.729 83.9028 234.677 80.4957C235.812 80.4957 236.947 80.4957 238.083 80.4957C238.083 86.1715 238.083 91.8477 238.083 97.5235C236.762 97.6155 235.472 97.5124 234.213 97.2139C232.33 93.9631 230.369 90.7638 228.33 87.6164C228.176 90.917 228.124 94.2195 228.176 97.5235C227.04 97.5235 225.905 97.5235 224.77 97.5235C224.77 91.8477 224.77 86.1715 224.77 80.4957Z" fill="white"/>
<path opacity="0.917" fill-rule="evenodd" clip-rule="evenodd" d="M240.245 80.4961C244.786 80.4961 249.327 80.4961 253.867 80.4961C253.867 81.528 253.867 82.5602 253.867 83.5921C252.216 83.5921 250.565 83.5921 248.914 83.5921C248.914 88.236 248.914 92.88 248.914 97.524C247.675 97.524 246.437 97.524 245.199 97.524C245.199 92.88 245.199 88.236 245.199 83.5921C243.548 83.5921 241.896 83.5921 240.245 83.5921C240.245 82.5602 240.245 81.528 240.245 80.4961Z" fill="white"/>
<path opacity="0.923" fill-rule="evenodd" clip-rule="evenodd" d="M255.729 80.4944C259.458 80.3814 263.173 80.5362 266.874 80.9588C269.374 82.5381 270.148 84.7567 269.196 87.6152C268.325 88.9037 267.139 89.7808 265.636 90.2468C266.397 90.6981 267.068 91.2656 267.648 91.9495C268.68 93.6006 269.712 95.252 270.744 96.9031C273.037 91.4926 275.153 86.0229 277.091 80.4944C278.448 80.3935 279.79 80.4969 281.116 80.804C283.46 86.3176 285.628 91.8904 287.617 97.5223C286.276 97.5223 284.934 97.5223 283.592 97.5223C283.273 96.3065 282.86 95.1195 282.354 93.9619C280.179 93.7046 278.012 93.7564 275.852 94.1167C275.468 95.2177 275.056 96.3012 274.614 97.3675C271.931 97.574 269.248 97.574 266.564 97.3675C265.171 95.3551 263.778 93.3427 262.385 91.3303C261.562 90.8861 260.685 90.5765 259.753 90.4016C259.445 92.7663 259.341 95.1396 259.444 97.5223C258.205 97.5223 256.967 97.5223 255.729 97.5223C255.729 91.8464 255.729 86.1703 255.729 80.4944ZM259.444 83.5904C261.33 83.4786 263.188 83.6334 265.016 84.0548C266.237 85.557 265.928 86.6923 264.088 87.4604C262.543 87.6149 260.995 87.6666 259.444 87.6152C259.444 86.2737 259.444 84.9319 259.444 83.5904ZM278.948 85.1384C279.723 86.8368 280.446 88.591 281.116 90.4016C279.786 90.761 278.444 90.8127 277.091 90.5564C277.803 88.7793 278.423 86.9734 278.948 85.1384Z" fill="white"/>
<path opacity="0.944" fill-rule="evenodd" clip-rule="evenodd" d="M309.601 80.4947C313.332 80.3817 317.047 80.5365 320.747 80.9591C323.561 82.9573 324.131 85.4858 322.45 88.5443C321.623 89.3691 320.642 89.9369 319.508 90.2471C320.165 90.5944 320.734 91.0588 321.211 91.6403C322.459 93.4564 323.645 95.3139 324.772 97.213C323.338 97.5728 321.892 97.6242 320.437 97.3678C318.991 95.3037 317.549 93.2399 316.103 91.1759C315.106 90.7802 314.075 90.5223 313.007 90.4019C313.007 92.7756 313.007 95.1489 313.007 97.5226C311.871 97.5226 310.738 97.5226 309.601 97.5226C309.601 91.8468 309.601 86.1706 309.601 80.4947ZM313.007 83.5907C314.66 83.5393 316.313 83.591 317.96 83.7455C319.422 84.1941 319.886 85.1743 319.354 86.6867C318.991 87.118 318.527 87.3762 317.96 87.4607C316.313 87.6152 314.66 87.6669 313.007 87.6155C313.007 86.274 313.007 84.9322 313.007 83.5907Z" fill="white"/>
<path opacity="0.919" fill-rule="evenodd" clip-rule="evenodd" d="M326.319 80.4961C330.552 80.4961 334.781 80.4961 339.013 80.4961C339.013 81.528 339.013 82.5602 339.013 83.5921C336.019 83.5921 333.028 83.5921 330.035 83.5921C330.035 84.7274 330.035 85.8623 330.035 86.9976C332.821 86.9976 335.607 86.9976 338.394 86.9976C338.394 88.0295 338.394 89.0617 338.394 90.0936C335.607 90.0936 332.821 90.0936 330.035 90.0936C330.035 91.5385 330.035 92.9831 330.035 94.428C333.13 94.428 336.226 94.428 339.322 94.428C339.322 95.4599 339.322 96.4921 339.322 97.524C334.988 97.524 330.654 97.524 326.319 97.524C326.319 91.8481 326.319 86.1719 326.319 80.4961Z" fill="white"/>
<path opacity="0.925" fill-rule="evenodd" clip-rule="evenodd" d="M341.794 80.495C345.215 80.3776 348.621 80.5324 352.011 80.9594C354.556 82.491 355.432 84.7098 354.643 87.6157C354.206 89.1863 353.228 90.2699 351.702 90.8665C349.652 91.2185 347.587 91.3733 345.51 91.3309C345.51 93.395 345.51 95.4588 345.51 97.5228C344.271 97.5228 343.033 97.5228 341.794 97.5228C341.794 91.847 341.794 86.1708 341.794 80.495ZM345.51 83.591C347.321 83.3931 349.024 83.7027 350.618 84.5197C351.315 85.8095 351.058 86.8931 349.844 87.7705C348.404 87.925 346.959 87.9767 345.51 87.9253C345.51 86.4804 345.51 85.0358 345.51 83.591Z" fill="white"/>
<path opacity="0.919" fill-rule="evenodd" clip-rule="evenodd" d="M357.279 80.4961C358.517 80.4961 359.755 80.4961 360.994 80.4961C360.941 84.5221 360.994 88.5469 361.149 92.5704C361.638 93.9274 362.619 94.6497 364.09 94.7376C365.573 94.6456 366.554 93.9233 367.031 92.5704C367.186 88.5469 367.238 84.5221 367.186 80.4961C368.424 80.4961 369.662 80.4961 370.901 80.4961C371.025 85.1537 370.87 89.7976 370.436 94.428C369.158 96.9264 367.093 98.0614 364.245 97.8336C361.272 98.154 359.105 97.0187 357.743 94.428C357.3 89.802 357.145 85.158 357.279 80.4961Z" fill="white"/>
<path opacity="0.916" fill-rule="evenodd" clip-rule="evenodd" d="M373.996 80.4958C377.197 80.4444 380.395 80.4958 383.593 80.6506C387.278 81.5875 388.361 83.8064 386.844 87.307C386.482 87.6683 386.123 88.0293 385.761 88.3906C388.256 90.0091 388.925 92.2277 387.773 95.0469C387.29 96.0463 386.516 96.7172 385.451 97.0593C381.652 97.4983 377.832 97.6531 373.996 97.5237C373.996 91.8478 373.996 86.1717 373.996 80.4958ZM377.711 83.5918C379.364 83.5404 381.018 83.5921 382.665 83.7466C384.182 84.6206 384.284 85.6528 382.974 86.8426C381.244 87.2416 379.488 87.3964 377.711 87.307C377.711 86.0686 377.711 84.8302 377.711 83.5918ZM377.711 90.4029C379.572 90.3516 381.429 90.4033 383.284 90.5577C385.014 91.9265 384.909 93.1649 382.974 94.2729C381.222 94.4274 379.47 94.4791 377.711 94.4277C377.711 93.0862 377.711 91.7444 377.711 90.4029Z" fill="white"/>
<path opacity="0.9" fill-rule="evenodd" clip-rule="evenodd" d="M404.954 80.4961C406.192 80.4961 407.431 80.4961 408.669 80.4961C408.669 86.1719 408.669 91.8481 408.669 97.524C407.431 97.524 406.192 97.524 404.954 97.524C404.954 91.8481 404.954 86.1719 404.954 80.4961Z" fill="white"/>
<path opacity="0.909" fill-rule="evenodd" clip-rule="evenodd" d="M411.457 80.4962C412.695 80.4962 413.934 80.4962 415.172 80.4962C415.12 82.872 415.172 85.2457 415.327 87.6169C417.442 85.2949 419.559 82.973 421.674 80.651C423.324 80.4445 424.977 80.4445 426.627 80.651C424.621 82.9163 422.556 85.1352 420.435 87.3073C422.603 90.6098 424.77 93.912 426.937 97.2144C425.398 97.5742 423.85 97.6259 422.293 97.3692C420.757 94.8664 419.262 92.338 417.804 89.7841C417.051 90.7711 416.225 91.6999 415.327 92.5705C415.172 94.2185 415.12 95.8695 415.172 97.524C413.934 97.524 412.695 97.524 411.457 97.524C411.457 91.8482 411.457 86.172 411.457 80.4962Z" fill="white"/>
<path opacity="0.9" fill-rule="evenodd" clip-rule="evenodd" d="M434.678 80.4961C435.917 80.4961 437.155 80.4961 438.393 80.4961C438.393 86.1719 438.393 91.8481 438.393 97.524C437.155 97.524 435.917 97.524 434.678 97.524C434.678 91.8481 434.678 86.1719 434.678 80.4961Z" fill="white"/>
<path opacity="0.925" fill-rule="evenodd" clip-rule="evenodd" d="M441.173 80.4954C442.495 80.4034 443.783 80.5065 445.043 80.805C447.186 84.1592 449.248 87.5647 451.235 91.0217C451.39 87.5146 451.443 84.0056 451.39 80.4954C452.526 80.4954 453.659 80.4954 454.796 80.4954C454.796 86.1712 454.796 91.8474 454.796 97.5233C453.474 97.6152 452.186 97.5121 450.926 97.2137C448.861 93.9112 446.799 90.609 444.734 87.3065C444.579 90.7106 444.526 94.1161 444.579 97.5233C443.443 97.5233 442.31 97.5233 441.173 97.5233C441.173 91.8474 441.173 86.1712 441.173 80.4954Z" fill="white"/>
<path opacity="0.942" fill-rule="evenodd" clip-rule="evenodd" d="M458.206 80.4958C460.995 80.4444 463.781 80.4958 466.565 80.6506C469.097 81.0132 470.8 82.4064 471.673 84.8302C472.735 87.9599 472.63 91.0559 471.363 94.1181C470.385 95.9221 468.89 97.0057 466.874 97.3689C463.986 97.5237 461.097 97.5751 458.206 97.5237C458.206 91.8478 458.206 86.1717 458.206 80.4958ZM461.611 83.5918C467.521 83.1129 469.741 85.7961 468.267 91.6413C468.011 93.1376 467.131 94.015 465.636 94.2729C464.298 94.4274 462.958 94.4791 461.611 94.4277C461.611 90.8156 461.611 87.2039 461.611 83.5918Z" fill="white"/>
<path opacity="0.917" fill-rule="evenodd" clip-rule="evenodd" d="M492.876 80.4954C494.198 80.4034 495.486 80.5065 496.746 80.805C498.734 84.262 500.795 87.6675 502.938 91.0217C503.093 87.5146 503.145 84.0056 503.093 80.4954C504.229 80.4954 505.362 80.4954 506.498 80.4954C506.498 86.1712 506.498 91.8474 506.498 97.5233C505.176 97.6152 503.888 97.5121 502.628 97.2137C500.563 93.9112 498.501 90.609 496.436 87.3065C496.282 90.7106 496.229 94.1161 496.282 97.5233C495.145 97.5233 494.012 97.5233 492.876 97.5233C492.876 91.8474 492.876 86.1712 492.876 80.4954Z" fill="white"/>
<path opacity="0.954" fill-rule="evenodd" clip-rule="evenodd" d="M509.908 80.4961C514.035 80.4961 518.165 80.4961 522.292 80.4961C522.292 81.528 522.292 82.5602 522.292 83.5921C519.298 83.5921 516.308 83.5921 513.314 83.5921C513.314 84.7274 513.314 85.8623 513.314 86.9976C516.1 86.9976 518.887 86.9976 521.673 86.9976C521.673 88.0295 521.673 89.0617 521.673 90.0936C518.887 90.0936 516.1 90.0936 513.314 90.0936C513.314 91.5385 513.314 92.9831 513.314 94.428C516.41 94.428 519.506 94.428 522.602 94.428C522.602 95.4599 522.602 96.4921 522.602 97.524C518.37 97.524 514.14 97.524 509.908 97.524C509.908 91.8481 509.908 86.1719 509.908 80.4961Z" fill="white"/>
<path opacity="0.9" fill-rule="evenodd" clip-rule="evenodd" d="M540.56 80.4961C541.798 80.4961 543.037 80.4961 544.275 80.4961C544.275 86.1719 544.275 91.8481 544.275 97.524C543.037 97.524 541.798 97.524 540.56 97.524C540.56 91.8481 540.56 86.1719 540.56 80.4961Z" fill="white"/>
<path opacity="0.918" fill-rule="evenodd" clip-rule="evenodd" d="M562.542 96.9031C562.542 97.1096 562.542 97.3158 562.542 97.5223C561.186 97.6232 559.842 97.5198 558.517 97.2127C558.105 96.1808 557.69 95.1486 557.278 94.1167C555.117 93.7564 552.95 93.7046 550.777 93.9619C550.334 95.0282 549.922 96.1118 549.538 97.2127C548.198 97.6254 546.854 97.6254 545.514 97.2127C547.619 91.7186 549.786 86.2489 552.015 80.804C553.34 80.4969 554.684 80.3935 556.04 80.4944C558.031 86.0576 560.198 91.5269 562.542 96.9031ZM553.873 85.448C554.619 87.1124 555.34 88.8152 556.04 90.5564C554.687 90.8127 553.346 90.761 552.015 90.4016C552.576 88.7177 553.195 87.0663 553.873 85.448Z" fill="white"/>
<path opacity="0.97" fill-rule="evenodd" clip-rule="evenodd" d="M289.471 80.8047C290.606 80.8047 291.741 80.8047 292.876 80.8047C292.876 85.3456 292.876 89.8861 292.876 94.427C295.663 94.427 298.449 94.427 301.235 94.427C301.235 95.4589 301.235 96.4911 301.235 97.523C297.314 97.523 293.392 97.523 289.471 97.523C289.471 91.9502 289.471 86.3774 289.471 80.8047Z" fill="white"/>
<path opacity="0.914" fill-rule="evenodd" clip-rule="evenodd" d="M391.02 80.8047C392.258 80.8047 393.497 80.8047 394.735 80.8047C394.735 85.3456 394.735 89.8861 394.735 94.427C397.522 94.427 400.308 94.427 403.094 94.427C403.094 95.4589 403.094 96.4911 403.094 97.523C399.07 97.523 395.045 97.523 391.02 97.523C391.02 91.9502 391.02 86.3774 391.02 80.8047Z" fill="white"/>
<path fill-rule="evenodd" clip-rule="evenodd" d="M46.7492 0C48.8133 0 50.8771 0 52.9412 0C73.6093 2.20777 88.1087 12.8373 96.4396 31.8885C102.774 50.4368 99.8845 67.3613 87.7709 82.6625C78.3632 93.1198 66.6502 98.8991 52.6316 100C50.774 100 48.9164 100 47.0588 100C28.4433 98.3053 14.563 89.3269 5.41796 73.065C2.63058 67.3378 0.824598 61.3523 0 55.1084C0 51.7028 0 48.2972 0 44.8916C2.60657 26.0093 12.5137 12.4387 29.7214 4.17957C35.2338 1.94986 40.9099 0.556675 46.7492 0ZM37.4619 9.59791C45.3551 9.28899 53.3012 9.1858 61.3009 9.28831C61.3969 10.2831 61.2938 11.2119 60.9913 12.0747C60.9913 11.2491 60.9913 10.4235 60.9913 9.59791C53.1483 9.59791 45.305 9.59791 37.4619 9.59791ZM37.463 9.59766C45.306 9.59766 53.1494 9.59766 60.9924 9.59766C60.9924 10.4233 60.9924 11.2488 60.9924 12.0744C56.6289 11.4612 54.3583 13.3188 54.1813 17.6472C59.9144 17.2353 65.2809 18.4221 70.2803 21.2076C74.8457 24.6876 76.2388 29.1768 74.4599 34.6751C74.1683 35.7565 73.7556 36.7884 73.2215 37.771C70.5286 41.4128 67.0713 44.0444 62.85 45.6658C68.8221 47.6422 73.724 51.0995 77.5559 56.0373C82.2961 66.6856 79.4583 74.6837 69.0419 80.0311C65.8543 81.2924 62.5518 82.0664 59.1348 82.3531C46.0286 82.3531 32.9221 82.3531 19.8159 82.3531C19.8159 81.4243 19.8159 80.4955 19.8159 79.5667C22.0764 79.732 24.2435 79.371 26.3175 78.4831C27.4595 77.333 28.1303 75.9398 28.3299 74.3035C28.5363 58.1014 28.5363 41.8989 28.3299 25.6967C27.861 22.1841 25.8486 20.4297 22.2927 20.4336C21.5348 20.1323 20.7092 20.0291 19.8159 20.124C19.8159 19.2984 19.8159 18.4728 19.8159 17.6472C28.0719 17.6472 36.3277 17.6472 44.5837 17.6472C44.3822 13.1508 42.0085 11.19 37.463 11.7648C37.463 11.0425 37.463 10.32 37.463 9.59766ZM19.815 17.6465C19.815 18.4721 19.815 19.2977 19.815 20.1233C20.7083 20.0284 21.5339 20.1316 22.2918 20.4329C21.363 20.4329 20.4342 20.4329 19.5054 20.4329C19.4094 19.4381 19.5126 18.5093 19.815 17.6465ZM38.0795 20.7437C44.7996 20.6101 51.5076 20.7649 58.2033 21.2081C64.4733 23.5814 66.8987 28.0706 65.4788 34.6756C63.5052 39.7709 59.8417 42.97 54.4881 44.2731C54.1785 37.2586 54.0754 30.2411 54.1785 23.2205C50.9795 23.2205 47.7801 23.2205 44.581 23.2205C44.581 30.754 44.581 38.2877 44.581 45.8211C43.5439 45.77 42.512 45.8217 41.485 45.9759C40.9401 47.0134 40.5271 48.0969 40.2466 49.2267C45.7476 48.9901 51.2169 48.5257 56.6553 47.8335C62.1764 50.4651 66.2528 54.5415 68.8844 60.0626C71.542 69.4542 68.1878 75.4914 58.8225 78.174C57.2949 78.5332 55.747 78.688 54.1785 78.6384C54.1785 69.4536 54.1785 60.2691 54.1785 51.0843C50.9915 51.5072 47.7922 51.8168 44.581 52.013C44.581 60.8883 44.581 69.7632 44.581 78.6384C41.3157 78.84 39.2002 77.3951 38.2343 74.3041C38.0795 56.4508 38.0278 38.5976 38.0795 20.7437ZM19.8155 79.5664C19.8155 80.4952 19.8155 81.424 19.8155 82.3528C32.9217 82.3528 46.0282 82.3528 59.1344 82.3528C45.9774 82.6621 32.7681 82.7652 19.5059 82.6624C19.409 81.5658 19.5122 80.5339 19.8155 79.5664ZM59.4433 90.4028C59.8827 90.6973 60.3985 90.8004 60.9913 90.7124C60.9913 91.4347 60.9913 92.1573 60.9913 92.8796C53.1483 92.8796 45.305 92.8796 37.4619 92.8796C37.4619 92.1573 37.4619 91.4347 37.4619 90.7124C41.987 91.2942 44.3604 89.3335 44.5827 84.8301C47.7817 84.8301 50.9811 84.8301 54.1802 84.8301C54.0545 88.5217 55.809 90.3793 59.4433 90.4028ZM59.4433 90.4023C60.0625 90.4023 60.6817 90.4023 61.3009 90.4023C61.3009 91.3311 61.3009 92.2599 61.3009 93.1887C53.3012 93.2912 45.3551 93.1881 37.4619 92.8791C45.305 92.8791 53.1483 92.8791 60.9913 92.8791C60.9913 92.1568 60.9913 91.4342 60.9913 90.7119C60.3985 90.7999 59.8827 90.6968 59.4433 90.4023Z" fill="white"/>
</svg>
