<svg width="5000" height="5000" viewBox="0 0 5000 5000" fill="none" xmlns="http://www.w3.org/2000/svg">
<path d="M3577.89 4853.04C3528.37 4761.42 3558.09 4647.51 3637.32 4607.89C3701.69 4578.17 3719.02 4578.17 3773.49 4607.89C3865.1 4659.89 3894.82 4758.94 3840.35 4838.18C3785.87 4922.38 3619.98 4932.28 3577.89 4853.04Z" fill="#EF1C23"/>
<path d="M542.362 4392.45C487.89 4310.73 517.602 4214.16 614.164 4159.68C673.588 4127.48 688.443 4127.48 750.342 4159.68C832.049 4206.73 856.809 4352.83 792.434 4417.21C728.059 4481.6 591.881 4469.22 542.362 4392.45Z" fill="#EF1C23"/>
<path d="M3446.65 3102.28C3439.22 3092.37 3441.7 3025.51 3449.13 2958.65L3463.98 2834.83L3481.32 2958.65C3496.17 3072.56 3476.36 3151.8 3446.65 3102.28Z" fill="#EF1C23"/>
<path d="M2302.75 2968.56C2045.25 2921.51 2060.1 2931.41 2077.43 2812.55C2087.34 2753.12 2087.34 2676.35 2077.43 2639.2C2065.05 2582.25 2050.2 2577.3 1899.16 2567.39C1807.55 2562.44 1904.12 2557.49 2112.1 2555.01L2490.92 2550.06L2483.49 2765.5C2478.54 2881.88 2466.16 2980.94 2451.3 2985.89C2438.92 2988.37 2372.07 2980.94 2302.75 2968.56Z" fill="#EF1C23"/>
<path d="M2637 2899.24C2637 2872 2651.85 2847.23 2671.66 2847.23C2691.47 2847.23 2711.27 2834.85 2716.23 2822.47C2721.18 2807.61 2797.93 2790.28 2892.02 2780.37C3048.01 2765.51 3057.91 2767.99 3057.91 2817.52C3057.91 2869.52 3025.72 2879.43 2731.08 2933.9C2646.9 2951.24 2637 2946.29 2637 2899.24Z" fill="#EF1C23"/>
<path d="M1745.65 2451C1745.65 2403.95 1762.98 2401.48 2055.15 2401.48C2307.7 2401.48 2364.64 2408.91 2364.64 2436.15C2364.64 2455.96 2384.45 2478.24 2409.21 2483.2C2431.49 2490.63 2292.84 2495.58 2099.72 2498.05C1760.51 2500.53 1745.65 2498.05 1745.65 2451Z" fill="#EF1C23"/>
<path d="M4597.96 2270.23C4568.25 2238.04 4543.49 2188.51 4543.49 2158.8C4543.49 2082.03 4630.15 2005.27 4711.85 2005.27C4857.94 2005.27 4927.26 2193.47 4815.84 2282.61C4741.57 2342.05 4662.33 2339.57 4597.96 2270.23Z" fill="#EF1C23"/>
<path d="M225.398 1678.4C173.402 1604.11 175.878 1554.59 237.777 1475.35C294.725 1403.53 371.479 1393.63 453.186 1450.58C522.513 1497.63 527.465 1633.83 463.09 1690.79C396.239 1752.69 269.965 1745.26 225.398 1678.4Z" fill="#EF1C23"/>
<path d="M2592.47 455.099C2528.09 410.525 2518.19 271.851 2577.61 212.419C2664.27 123.271 2859.87 200.037 2859.87 321.377C2859.87 385.762 2753.4 494.72 2693.98 494.72C2669.22 494.72 2622.18 477.386 2592.47 455.099Z" fill="#EF1C23"/>
<path d="M3446.68 3102.27C3441.72 3092.37 3444.2 3060.18 3454.1 3035.41C3468.96 2988.36 3471.43 2988.36 3488.77 3032.94C3506.1 3079.99 3468.96 3141.89 3446.68 3102.27Z" fill="#FF020F"/>
<path d="M2409.27 2983.41C2401.84 2975.98 2401.84 2899.22 2406.79 2812.55C2414.22 2718.45 2409.27 2636.73 2391.93 2604.54L2362.22 2550.06H2718.76C2914.36 2550.06 3080.25 2555.01 3085.2 2559.96C3090.16 2564.91 3090.16 2639.2 3087.68 2723.4L3077.78 2876.93L2993.59 2859.6C2941.6 2849.69 2909.41 2854.64 2909.41 2871.98C2909.41 2886.84 2884.65 2891.79 2847.51 2881.88C2810.37 2871.98 2785.61 2876.93 2785.61 2891.79C2785.61 2906.65 2721.24 2931.41 2644.48 2946.27C2565.25 2961.13 2483.54 2978.46 2461.26 2985.89C2441.45 2990.84 2416.69 2990.84 2409.27 2983.41Z" fill="#FF020F"/>
<path d="M3459.05 2718.45L3454.1 2500.53H2877.2C2330.01 2500.53 2300.3 2498.05 2270.59 2451C2240.87 2401.48 2245.83 2401.48 2958.9 2401.48C3352.58 2401.48 3676.93 2411.38 3676.93 2421.29C3676.93 2463.39 3615.03 2500.53 3548.18 2500.53H3481.33L3471.43 2718.45L3464 2933.89L3459.05 2718.45Z" fill="#FF020F"/>
<path d="M2523.1 4461.77C2493.39 4417.2 2171.52 4325.57 1938.78 4295.86C1839.74 4283.47 1819.93 4271.09 1819.93 4228.99C1819.93 4186.9 1829.83 4181.94 1889.26 4194.33C2032.86 4226.52 2684.04 4238.9 2906.88 4211.66C3035.63 4196.8 3147.05 4189.37 3152 4194.33C3161.9 4206.71 2602.33 4506.34 2572.62 4506.34C2560.24 4506.34 2537.96 4486.53 2523.1 4461.77Z" fill="#01429F"/>
<path d="M817.125 3894.7C794.841 3827.84 772.558 3699.07 765.13 3602.49L752.75 3429.15L814.649 3543.06C883.976 3669.35 1064.72 3862.51 1178.62 3929.37C1218.23 3951.66 1250.42 3981.37 1250.42 3993.75C1250.42 4025.95 1017.68 3996.23 1007.77 3964.04C992.918 3921.94 928.543 3931.84 928.543 3973.94C928.543 4055.66 856.74 4003.66 817.125 3894.7Z" fill="#01429F"/>
<path d="M2488.44 3391.99C2488.44 3352.36 2500.82 3317.7 2513.2 3317.7C2528.06 3317.7 2537.96 3292.93 2537.96 3260.74C2537.96 3228.55 2550.34 3191.4 2567.67 3174.07C2589.96 3151.78 2589.96 3144.35 2567.67 3144.35C2513.2 3144.35 2535.48 3072.54 2594.91 3057.68C2768.23 3020.54 3057.91 2980.92 3052.96 2998.25C3045.53 3018.06 2515.68 3466.27 2498.35 3466.27C2493.39 3466.27 2488.44 3434.08 2488.44 3391.99Z" fill="#01429F"/>
<path d="M4172.11 3379.6C4172.11 3359.79 4157.26 3342.46 4139.92 3342.46C4122.59 3342.46 4097.83 3310.27 4082.98 3270.65C4063.17 3218.64 4035.93 3196.36 3976.51 3188.93C3914.61 3179.02 3899.76 3186.45 3899.76 3223.6C3899.76 3253.31 3882.42 3268.17 3840.33 3268.17C3783.39 3268.17 3783.39 3263.22 3803.19 3176.55C3815.57 3124.54 3832.9 2901.67 3842.81 2678.8C3850.24 2455.94 3865.09 2285.07 3875 2294.97C3904.71 2329.64 4199.35 3082.45 4234.01 3221.12C4281.05 3396.94 4281.05 3416.75 4221.63 3416.75C4194.4 3416.75 4172.11 3399.41 4172.11 3379.6Z" fill="#01429F"/>
<path d="M780.026 2104.32C780.026 2077.08 770.122 2054.79 755.266 2054.79C742.887 2054.79 730.507 2027.55 730.507 1992.88C730.507 1943.36 713.175 1928.5 631.468 1903.74L532.43 1874.02L599.281 1752.68C680.987 1601.62 881.541 1410.95 1047.43 1326.75C1116.76 1292.08 1181.13 1262.37 1188.56 1262.37C1193.51 1262.37 1161.32 1314.37 1111.81 1381.23C965.723 1569.43 879.065 1824.49 879.065 2054.79C879.065 2136.51 871.637 2153.84 829.545 2153.84C797.358 2153.84 780.026 2136.51 780.026 2104.32Z" fill="#01429F"/>
<path d="M4909.95 1921.07C4808.43 1829.45 4588.07 1757.63 4424.66 1760.11C4253.82 1762.58 4147.35 1787.35 4191.92 1817.06C4206.77 1826.97 4221.63 1844.3 4221.63 1859.16C4221.63 1901.26 4070.6 1881.45 3894.8 1819.54C3684.35 1742.77 3676.92 1742.77 3676.92 1819.54V1881.45L3577.88 1817.06C3523.41 1779.92 3478.84 1735.35 3478.84 1718.01C3478.84 1685.82 3387.23 1643.72 3364.95 1666.01C3357.52 1673.44 3260.96 1636.29 3149.54 1584.29C3035.64 1532.29 2815.28 1448.09 2654.35 1398.57C2495.88 1346.56 2367.13 1301.99 2369.61 1299.51C2399.32 1274.75 3374.85 1210.36 3528.36 1225.22C3847.76 1252.46 4266.2 1371.33 4444.47 1482.76C4583.12 1569.43 4934.71 1859.16 4974.32 1918.59C5026.32 1995.36 4996.61 1997.84 4909.95 1921.07Z" fill="#01429F"/>
<path d="M2389.4 933.008C2389.4 873.576 2404.26 841.384 2433.97 829.002C2513.2 796.81 2389.4 772.047 2223.51 784.428C2079.91 796.81 2067.53 794.334 2067.53 749.76C2067.53 690.328 1916.49 628.42 1790.22 640.802C1738.22 643.278 1696.13 635.849 1696.13 623.467C1696.13 611.086 1787.74 512.033 1901.64 403.075C2052.67 259.448 2164.09 177.729 2312.65 103.44C2537.96 -10.4713 2649.38 -35.2345 2525.58 53.9131C2325.03 200.016 2166.57 455.077 2166.57 633.373C2166.57 692.805 2171.52 695.281 2235.89 677.947C2273.03 665.565 2409.21 655.66 2537.96 655.66C2755.84 655.66 2788.03 663.089 2934.11 734.902C3023.25 779.476 3134.67 851.289 3181.71 893.387C3260.94 962.724 3263.42 967.676 3206.47 952.818C3171.81 942.913 3060.39 930.531 2958.87 923.102C2790.51 910.721 2592.43 942.913 2426.54 1004.82C2396.83 1017.2 2389.4 999.869 2389.4 933.008Z" fill="#01429F"/>
<path d="M1938.78 2901.7L1745.65 2867.04V2708.55V2547.59L1951.16 2555.02L2154.19 2562.45L2166.57 2701.12C2173.99 2775.41 2169.04 2859.61 2154.19 2886.85C2129.43 2931.42 2122 2933.9 1938.78 2901.7Z" fill="#C1080E"/>
<path d="M1213.3 2451L1168.73 2401.48H1579.74H1988.27L1973.42 2455.96C1961.04 2507.96 1958.56 2507.96 1941.23 2460.91C1926.38 2423.76 1921.42 2421.29 1921.42 2455.96C1918.95 2490.63 1876.86 2495.58 1589.64 2498.05C1287.58 2503.01 1255.39 2498.05 1213.3 2451Z" fill="#C1080E"/>
<path d="M2087.32 4687.12C2077.42 4637.59 1369.29 4409.77 1354.44 4451.87C1349.48 4469.2 1329.68 4481.58 1309.87 4481.58C1292.54 4481.58 1282.63 4466.72 1290.06 4449.39C1297.49 4429.58 1275.2 4404.82 1240.54 4387.48C1072.18 4310.72 856.767 4048.23 836.959 3892.22C824.579 3812.98 829.531 3810.5 881.526 3825.36C913.714 3835.26 973.137 3847.64 1015.23 3850.12C1054.84 3852.6 1084.56 3862.5 1077.13 3872.41C1035.04 3929.36 1901.62 4233.95 2092.27 4229C2201.21 4226.52 2547.85 4337.96 2594.89 4387.48C2617.18 4414.72 2636.98 4446.91 2636.98 4456.82C2636.98 4484.06 2389.39 4617.78 2225.97 4677.21C2109.6 4721.79 2094.75 4721.79 2087.32 4687.12Z" fill="#01369A"/>
<path d="M4221.61 4105.19C4221.61 4035.85 4162.19 3996.23 3949.26 3919.47C3837.84 3879.85 3761.08 3867.46 3696.71 3879.84C3644.71 3887.27 3602.62 3887.27 3602.62 3879.84C3602.62 3869.94 3624.91 3805.56 3654.62 3733.74C3701.66 3614.88 3798.22 3260.76 3810.6 3161.71C3820.51 3079.99 3860.12 3067.61 3998.78 3102.28C4073.06 3122.09 4137.43 3149.33 4142.38 3166.66C4147.33 3181.52 4167.14 3193.9 4184.47 3193.9C4204.28 3193.9 4226.57 3203.81 4233.99 3218.67C4241.42 3233.52 4231.52 3236 4211.71 3228.57C4189.43 3221.14 4172.09 3226.1 4172.09 3240.95C4172.09 3255.81 4186.95 3268.19 4206.76 3268.19C4263.71 3268.19 4305.8 3505.92 4308.27 3837.75C4308.27 4112.62 4303.32 4147.29 4266.18 4154.72C4233.99 4162.15 4221.61 4147.29 4221.61 4105.19Z" fill="#01369A"/>
<path d="M2270.57 3399.45C2107.16 3270.68 2089.82 3243.44 2166.58 3243.44C2198.77 3243.44 2216.1 3226.11 2216.1 3193.92C2216.1 3166.68 2206.19 3144.39 2191.34 3144.39C2178.96 3144.39 2166.58 3124.58 2166.58 3097.34C2166.58 3055.24 2186.39 3052.77 2396.84 3060.2C2520.64 3065.15 2632.06 3070.1 2644.44 3070.1C2671.68 3070.1 2664.25 3238.49 2634.54 3258.3C2614.73 3268.21 2617.2 3280.59 2639.49 3295.45C2666.72 3312.78 2646.92 3340.02 2562.73 3416.79C2500.83 3471.26 2443.89 3515.84 2436.46 3515.84C2429.03 3515.84 2352.28 3463.84 2270.57 3399.45Z" fill="#01369A"/>
<path d="M829.538 2654.06C829.538 2626.82 658.696 2557.49 453.191 2500.53C240.258 2441.1 260.066 2443.58 260.066 2488.15C260.066 2550.06 213.023 2530.25 170.931 2446.05C49.6092 2208.32 -24.6697 1807.16 7.51779 1559.53L27.3255 1423.33L57.037 1571.91C94.1765 1760.11 205.595 1953.26 326.917 2047.36C480.427 2168.7 477.951 2168.7 510.138 2005.27C524.994 1921.07 554.706 1839.35 572.037 1819.54C589.369 1802.21 599.273 1782.4 594.321 1777.44C586.893 1770.02 631.46 1789.83 693.36 1817.07C775.066 1854.21 804.778 1883.93 804.778 1921.07C804.778 1950.79 819.634 1980.5 839.441 1987.93C861.725 1997.84 874.105 2054.79 876.581 2178.61C879.057 2275.19 891.437 2411.38 903.816 2480.72C938.48 2656.54 936.004 2673.87 879.057 2673.87C851.821 2673.87 829.538 2666.44 829.538 2654.06Z" fill="#01369A"/>
<path d="M4063.15 2262.8C3996.3 2173.65 3860.12 2032.5 3761.08 1950.78C3659.57 1866.59 3577.86 1792.3 3577.86 1782.39C3577.86 1772.49 3563.01 1765.06 3548.15 1765.06C3496.16 1770.01 3280.75 1651.15 3280.75 1616.48C3280.75 1599.14 3251.04 1566.95 3216.37 1544.67C3161.9 1507.52 3149.52 1507.52 3129.71 1537.24C3117.33 1559.52 3107.43 1562 3107.43 1542.19C3107.43 1487.71 3149.52 1485.23 3295.6 1532.28C3377.31 1559.52 3610.05 1631.34 3813.08 1695.72C4055.72 1772.49 4199.33 1831.92 4229.04 1866.59C4298.37 1948.31 4389.98 2153.84 4409.79 2275.18L4427.12 2381.66L4323.13 2364.33C4238.94 2349.47 4221.61 2354.42 4221.61 2386.62C4221.61 2455.95 4186.95 2428.71 4063.15 2262.8Z" fill="#01369A"/>
<path d="M1770.45 1373.81C1770.45 1331.71 1666.46 1284.66 1480.76 1240.09L1352.01 1207.89L1441.15 1032.08C1542.66 826.541 1678.84 628.435 1767.97 554.145L1832.35 499.666L1966.05 559.098C2037.85 591.29 2114.61 618.53 2134.42 618.53C2161.65 618.53 2169.08 635.864 2159.18 670.532C2146.8 715.106 2154.22 720.059 2198.79 707.677C2228.5 700.248 2273.07 692.819 2297.83 692.819C2322.59 692.819 2334.97 682.914 2327.54 668.056C2320.11 653.198 2330.02 643.293 2352.3 643.293C2374.58 643.293 2384.49 655.674 2377.06 668.056C2369.63 682.914 2382.01 692.819 2404.3 692.819C2429.06 692.819 2493.43 712.63 2547.9 739.869C2604.85 764.633 2669.22 791.872 2693.98 801.777C2731.12 814.159 2733.6 821.588 2706.36 851.304C2689.03 871.115 2666.75 881.02 2656.84 873.591C2644.46 868.638 2622.18 871.114 2607.33 883.496C2575.14 900.83 2565.23 903.307 2488.48 910.736C2463.72 915.688 2461.24 923.117 2481.05 942.928C2503.33 965.215 2466.2 992.454 2337.44 1054.36C2154.22 1141.03 1901.68 1306.95 1847.2 1371.33C1805.11 1420.86 1770.45 1423.33 1770.45 1373.81Z" fill="#01369A"/>
<path d="M3961.64 4964.48C4018.58 4813.42 4048.3 4682.18 4048.3 4578.17C4048.3 4459.31 3966.59 4199.29 3922.02 4169.58C3909.64 4162.15 3850.22 4211.68 3788.32 4278.54C3728.9 4342.92 3615 4434.55 3533.29 4476.64C3369.88 4563.31 3080.19 4620.27 2939.06 4593.03L2847.45 4575.7L2981.15 4526.17C3164.38 4456.83 3434.26 4186.91 3565.48 3939.28C3619.95 3837.75 3662.04 3746.13 3657.09 3733.75C3654.62 3723.84 3671.95 3723.84 3694.23 3736.22C3718.99 3748.6 3842.79 3790.7 3969.06 3830.32C4092.86 3867.47 4224.09 3924.42 4258.75 3954.14C4313.22 4006.14 4315.7 4023.48 4303.32 4152.24C4285.99 4352.83 4189.43 4640.08 4085.43 4815.9C3986.4 4976.86 3929.45 5048.67 3961.64 4964.48Z" fill="#012C73"/>
<path d="M955.796 4791.14C799.81 4756.47 465.555 4615.32 487.839 4593.03C492.791 4585.6 537.358 4593.03 584.401 4605.41C787.43 4664.85 1094.45 4605.41 1250.44 4481.6C1309.86 4432.07 1312.33 4429.6 1265.29 4394.93C1230.63 4367.69 1223.2 4350.35 1243.01 4330.54C1267.77 4305.78 1483.18 4360.26 1961.04 4513.79C2161.59 4578.17 2173.97 4585.6 2178.92 4652.46C2181.4 4689.61 2151.69 4706.94 2032.84 4739.14C1666.4 4835.71 1260.34 4855.52 955.796 4791.14Z" fill="#012C73"/>
<path d="M1025.12 3478.68C671.06 3181.53 515.074 3020.56 364.04 2795.22C255.098 2634.26 141.204 2386.63 158.536 2354.43C170.915 2337.1 269.954 2354.43 472.983 2411.39C918.656 2540.16 883.993 2512.92 1002.84 2876.94C1059.79 3050.28 1171.2 3322.68 1250.44 3483.64C1329.67 3644.6 1391.57 3778.32 1391.57 3780.8C1389.09 3783.27 1223.2 3647.07 1025.12 3478.68Z" fill="#012C73"/>
<path d="M2198.75 3335.06C2181.42 3317.73 2079.91 3238.48 1970.96 3156.77C1862.02 3075.05 1772.89 3000.76 1770.41 2993.33C1770.41 2985.9 1874.4 2995.8 2000.67 3015.61C2124.47 3035.43 2240.84 3050.28 2255.7 3052.76C2297.79 3055.24 2320.07 3322.68 2282.93 3347.44C2243.32 3372.21 2233.42 3372.21 2198.75 3335.06Z" fill="#012C73"/>
<path d="M4288.47 2785.31C4276.09 2659.02 4159.72 2349.48 4117.62 2332.15C4107.72 2327.19 4097.82 2297.48 4097.82 2265.28V2208.33L4229.04 2245.47C4298.37 2267.76 4372.65 2287.57 4389.98 2292.52C4437.02 2304.91 4427.12 2572.35 4370.17 2758.07C4340.46 2847.22 4315.7 2921.51 4310.75 2921.51C4305.8 2921.51 4295.89 2859.6 4288.47 2785.31Z" fill="#012C73"/>
<path d="M1087.02 2116.7C1106.83 2047.36 1163.78 1841.83 1213.3 1658.58C1265.29 1475.33 1322.24 1282.18 1344.52 1227.7C1381.66 1136.07 1384.14 1133.6 1475.75 1148.46C1611.93 1170.74 1800.1 1237.6 1849.62 1279.7C1889.24 1314.37 1876.86 1331.7 1693.64 1505.05C1584.69 1609.05 1408.9 1799.73 1307.39 1928.5C1037.51 2267.75 1044.93 2262.8 1087.02 2116.7Z" fill="#012C73"/>
</svg>
