<svg width="5000" height="5000" viewBox="0 0 5000 5000" fill="none" xmlns="http://www.w3.org/2000/svg">
<path fill-rule="evenodd" clip-rule="evenodd" d="M2500.01 713.582C3486.44 713.582 4286.42 1513.57 4286.42 2500.01C4286.42 3486.44 3486.44 4286.41 2500.01 4286.41C1513.56 4286.41 713.591 3486.44 713.591 2500.01C713.591 1513.57 1513.56 713.582 2500.01 713.582ZM2500.01 33.4473C2697.85 33.4473 2890.27 56.8129 3074.66 100.852L3077.26 396.139C3275.71 450.491 3462.9 532.045 3634.46 636.75L3841.3 429.905C4134.78 620.486 4385.22 871.72 4574.79 1165.91L4373.58 1382.82C4480.93 1562.43 4563.2 1758.72 4615.52 1966.93L4909.1 1969.22C4946.61 2140.21 4966.56 2317.77 4966.56 2500.01C4966.56 2659.63 4951.38 2815.71 4922.39 2966.91L4628.81 2976.91C4581.66 3188 4504 3387.57 4400.57 3570.73L4607.16 3782.44C4419.73 4089.63 4167.06 4352.67 3868.37 4552.23L3660.72 4346.86C3489.12 4454.94 3301.47 4539.85 3102.09 4597.01L3101.07 4892.62C2908.66 4940.83 2707.33 4966.56 2500.01 4966.56C2288.68 4966.56 2083.59 4939.92 1887.82 4889.9L1886.8 4593.71C1688.94 4535.82 1502.72 4450.71 1332.49 4342.62L1124.98 4547.85C826.923 4347.3 575.007 4083.41 388.547 3775.47L595.383 3563.49C494.043 3382.44 417.815 3185.48 371.275 2977.28L77.6755 2967.28C48.6395 2815.98 33.4375 2659.76 33.4375 2500.01C33.4375 2317.74 53.4055 2140.14 90.9295 1969.14L384.51 1966.84C436.125 1761.49 516.889 1567.73 622.091 1390.12L420.647 1172.94C609.297 877.98 859.045 625.836 1151.98 434.265L1358.69 641.029C1528.94 536.245 1714.66 454.233 1911.62 399.149L1914.23 103.5C2101.99 57.7329 2298.16 33.4473 2500.01 33.4473Z" fill="#0078C1"/>
<path d="M2500.01 747.021C1533.41 747.021 747.026 1533.41 747.026 2500.01C747.026 3466.6 1533.41 4252.98 2500.01 4252.98C3466.62 4252.98 4252.98 3466.6 4252.98 2500.01C4252.98 1533.41 3466.62 747.021 2500.01 747.021ZM2500.01 4319.85C1496.54 4319.85 680.154 3503.47 680.154 2500.01C680.154 1496.52 1496.54 680.152 2500.01 680.152C3503.48 680.152 4319.85 1496.52 4319.85 2500.01C4319.85 3503.47 3503.48 4319.85 2500.01 4319.85ZM1921.16 4863.77C2294.38 4954.87 2693.13 4955.94 3067.73 4866.36L3068.76 4571.79L3092.89 4564.86C3286.48 4509.37 3471.55 4426.51 3642.9 4318.58L3665.34 4304.45L3872.36 4509.16C4148.79 4319.86 4387.47 4071.05 4565 3787.1L4359.13 3576.14L4371.46 3554.29C4474.79 3371.31 4550.4 3174.6 4596.19 2969.62L4601.83 2944.37L4894.44 2934.4C4920.11 2791.86 4933.13 2645.86 4933.13 2500.01C4933.13 2332.94 4915.94 2165.7 4882.01 2002.45L4589.4 2000.16L4583.1 1975.09C4532.29 1772.95 4452.15 1579.46 4344.9 1399.98L4332.02 1378.45L4532.53 1162.3C4353.33 890.736 4116.7 653.188 3845.68 472.799L3639.51 678.998L3617.05 665.29C3446.13 560.986 3261.56 481.279 3068.44 428.382L3044.07 421.71L3041.46 127.441C2684.06 46.1798 2304.11 47.0898 1947.42 129.98L1944.83 424.572L1920.62 431.352C1729.16 484.903 1545.98 565.028 1376.21 669.506L1353.71 683.346L1147.65 477.239C877.102 658.602 641.154 897.038 462.85 1169.28L663.58 1385.68L650.856 1407.16C545.74 1584.62 467.036 1775.68 416.94 1974.99L410.632 2000.08L118.018 2002.37C84.072 2165.64 66.872 2332.93 66.872 2500.01C66.872 2646.04 79.91 2792.16 105.632 2934.77L398.272 2944.76L403.914 2970C449.088 3172.12 523.326 3366.29 624.56 3547.18L636.76 3568.97L430.656 3780.18C607.228 4064.8 845.102 4314.42 1121.05 4504.71L1327.92 4300.11L1350.41 4314.41C1520.09 4422.13 1703.72 4505.32 1896.19 4561.63L1920.15 4568.63L1921.16 4863.77ZM2500.01 5000C2290.08 5000 2081.33 4973.85 1879.54 4922.3L1854.47 4915.89L1853.45 4618.65C1672.14 4563.37 1498.72 4484.89 1337.17 4385.02L1129.03 4590.87L1106.31 4575.59C805.61 4373.26 547.514 4102.58 359.948 3792.79L346.536 3770.64L554.114 3557.92C460.012 3385.25 389.564 3201.09 344.446 3009.82L49.868 2999.79L44.842 2973.58C15.088 2818.54 0 2659.21 0 2500.01C0 2319.2 19.604 2138.18 58.274 1961.97L63.994 1935.92L358.546 1933.62C408.292 1745.11 482.928 1564.05 580.706 1394.67L378.552 1176.73L392.484 1154.93C582.282 858.145 838.588 599.277 1133.68 406.288L1156.41 391.404L1363.77 598.809C1525.24 502.101 1698.14 426.51 1878.4 373.871L1881.02 77.1833L1906.31 71.0294C2289.09 -22.2691 2698.92 -23.2431 3082.42 68.3275L3107.85 74.3994L3110.5 370.713C3292.35 422.78 3466.67 498.009 3629.33 594.625L3836.8 387.112L3859.51 401.864C4155.07 593.779 4412.13 851.727 4602.91 1147.79L4616.95 1169.61L4415.04 1387.29C4514.91 1558.8 4591.01 1742.37 4641.48 1933.7L4936.06 1936L4941.78 1962.06C4980.41 2138.24 5000 2319.23 5000 2500.01C5000 2659.02 4984.95 2818.23 4955.22 2973.2L4950.21 2999.4L4655.67 3009.44C4609.9 3203.63 4538.09 3390.33 4441.92 3565.22L4649.23 3777.69L4635.71 3799.85C4447.11 4108.98 4188.2 4378.76 3886.93 4580.04L3864.26 4595.19L3655.97 4389.19C3492.79 4489.26 3317.92 4567.49 3135.44 4622.09L3134.43 4918.72L3109.19 4925.05C2910.69 4974.78 2705.72 5000 2500.01 5000Z" fill="#302E2C"/>
<path fill-rule="evenodd" clip-rule="evenodd" d="M2500.69 33.4473C2698.29 33.5013 2890.48 56.8649 3074.66 100.852L3077.26 396.139C3275.71 450.491 3462.9 532.045 3634.46 636.75L3841.3 429.905C4134.78 620.486 4385.22 871.72 4574.79 1165.91L4373.58 1382.82C4480.93 1562.43 4563.2 1758.72 4615.52 1966.93L4909.1 1969.22C4946.61 2140.21 4966.56 2317.77 4966.56 2500.01C4966.56 2659.63 4951.38 2815.71 4922.39 2966.91L4628.81 2976.91C4581.66 3188 4504 3387.57 4400.57 3570.73L4607.16 3782.44C4419.73 4089.63 4167.06 4352.67 3868.37 4552.23L3660.72 4346.86C3489.12 4454.94 3301.47 4539.85 3102.09 4597.01L3101.07 4892.62C2908.87 4940.77 2707.77 4966.49 2500.69 4966.55V4286.4C3486.8 4286.04 4286.42 3486.21 4286.42 2500.01C4286.42 1513.78 3486.8 713.97 2500.69 713.598V33.4473Z" fill="#82C1E2"/>
<path d="M2534.13 4319.53V4932.89C2714.21 4930.37 2893.43 4908.04 3067.73 4866.36L3068.76 4571.79L3092.89 4564.86C3286.48 4509.37 3471.55 4426.51 3642.9 4318.58L3665.34 4304.45L3872.36 4509.16C4148.79 4319.86 4387.47 4071.05 4565 3787.1L4359.13 3576.13L4371.46 3554.29C4474.79 3371.31 4550.4 3174.6 4596.19 2969.62L4601.83 2944.37L4894.44 2934.4C4920.11 2791.86 4933.13 2645.86 4933.13 2500.01C4933.13 2332.94 4915.94 2165.7 4882.01 2002.45L4589.4 2000.16L4583.1 1975.09C4532.29 1772.95 4452.15 1579.46 4344.9 1399.98L4332.02 1378.45L4532.53 1162.3C4353.33 890.736 4116.7 653.188 3845.68 472.798L3639.51 678.997L3617.05 665.289C3446.13 560.985 3261.56 481.278 3068.44 428.381L3044.07 421.709L3041.46 127.44C2875.66 89.7526 2705.28 69.4889 2534.13 67.1089V680.483C3521.88 698.701 4319.85 1508.05 4319.85 2500.01C4319.85 3491.96 3521.88 4301.3 2534.13 4319.53ZM2467.25 5000V4252.98L2500.68 4252.96C3466.9 4252.62 4252.98 3466.24 4252.98 2500.01C4252.98 1533.77 3466.9 747.392 2500.68 747.032L2467.25 747.02V0L2500.69 0.0139998C2697.08 0.0679989 2892.8 23.0416 3082.42 68.3269L3107.85 74.3988L3110.5 370.712C3292.35 422.779 3466.67 498.008 3629.33 594.624L3836.8 387.112L3859.51 401.864C4155.07 593.778 4412.13 851.726 4602.91 1147.79L4616.95 1169.61L4415.04 1387.29C4514.91 1558.8 4591.01 1742.37 4641.48 1933.7L4936.06 1935.99L4941.78 1962.06C4980.41 2138.24 5000 2319.23 5000 2500.01C5000 2659.02 4984.95 2818.22 4955.22 2973.2L4950.21 2999.4L4655.67 3009.44C4609.9 3203.62 4538.09 3390.33 4441.92 3565.22L4649.23 3777.69L4635.71 3799.85C4447.11 4108.98 4188.2 4378.76 3886.93 4580.04L3864.26 4595.19L3655.97 4389.19C3492.79 4489.26 3317.92 4567.49 3135.44 4622.09L3134.43 4918.72L3109.19 4925.05C2910.93 4974.73 2706.21 4999.93 2500.69 4999.98L2467.25 5000Z" fill="#302E2C"/>
<path fill-rule="evenodd" clip-rule="evenodd" d="M2691.72 522.658H2306.86L2246.62 2148.36H2753.4L2691.72 522.658Z" fill="#EEEFEE"/>
<path d="M2281.31 2114.93H2718.68L2659.54 556.092H2339.09L2281.31 2114.93ZM2788.13 2181.8H2211.93L2274.64 489.221H2723.92L2788.13 2181.8Z" fill="#302E2C"/>
<path d="M2596.09 2107.04L2563.51 516.036L2630.35 514.66L2662.93 2105.66L2596.09 2107.04ZM2403.93 2107.04L2337.07 2105.66L2369.65 514.66L2436.51 516.036L2403.93 2107.04ZM2533.44 2119.89H2466.57V528.892H2533.44V2119.89Z" fill="#302E2C"/>
<path fill-rule="evenodd" clip-rule="evenodd" d="M2500.82 137.338L2659.9 307.429L2657.39 522.242C2551.86 522.242 2446.35 522.242 2340.81 522.242L2340.1 307.429L2500.82 137.338Z" fill="#EEEFEE"/>
<path d="M2374.14 488.807H2624.35L2626.31 320.468L2500.7 186.14L2373.58 320.696L2374.14 488.807ZM2690.44 555.678H2307.5L2306.62 294.188L2500.94 88.5098L2693.49 294.4L2690.44 555.678Z" fill="#302E2C"/>
<path fill-rule="evenodd" clip-rule="evenodd" d="M1583.62 4041.56C1803.03 4040.7 2018.58 3905.72 2136.7 3730.49L2308.1 3728.09V3725.79L2409.99 3726.65L2471.43 3725.79V3727.18L2863.3 3730.49C2981.42 3905.72 3196.99 4040.7 3416.39 4041.56L3272.89 4295.72H1727.11L1583.62 4041.56Z" fill="#EDEDEF"/>
<path d="M1746.62 4262.29H3253.38L3360.75 4072.12C3164.23 4052.69 2968.21 3936.26 2845.7 3763.78L2437.99 3760.32V3759.69L2410.45 3760.08L2341.54 3759.5V3761.06L2154.38 3763.67C2031.86 3936.23 1835.83 4052.69 1639.27 4072.12L1746.62 4262.29ZM3292.43 4329.15H1707.59L1526.48 4008.36L1583.48 4008.13C1778.84 4007.35 1990.01 3888.26 2108.96 3711.8L2118.74 3697.3L2274.67 3695.12V3692.07L2410.27 3693.21L2504.88 3691.88V3694.02L2881.2 3697.2L2891.06 3711.8C3009.98 3888.26 3221.17 4007.35 3416.52 4008.13L3473.53 4008.36L3292.43 4329.15Z" fill="#302E2C"/>
<path fill-rule="evenodd" clip-rule="evenodd" d="M2215.77 2243.28C2105.84 2135.43 1941.15 2022.63 1724.6 2007.91C1724.6 2007.91 1827.82 2229.64 1797.95 2409.52C1783.01 2499.47 1752.08 2626.27 1727.54 2746.82C1689.81 2932.22 1679.57 3100.84 1752.51 3264.41C1813.92 3402.1 1919.34 3497.06 2036.22 3584.65C2219.44 3721.95 2378 3791.72 2464.74 3851.57C2208.76 3609.31 1698.35 3105.54 2215.77 2243.28Z" fill="#FFF000"/>
<path d="M1776.89 2047.31C1806.63 2126.61 1853.34 2280.06 1830.93 2415C1821.67 2470.84 1806.47 2539.94 1790.4 2613.11C1780.27 2659.21 1769.8 2706.88 1760.3 2753.5C1727.91 2912.65 1708.24 3083.05 1783.04 3250.78C1843.32 3385.93 1949.98 3478.25 2056.26 3557.89C2131.04 3613.93 2201.58 3658.5 2264.97 3695.89C2022.91 3419.08 1765.72 2948.1 2173.46 2249.12C2084.42 2166.44 1950.08 2073.95 1776.89 2047.31ZM2445.75 3879.09C2415.58 3858.27 2374.99 3835.43 2327.99 3809C2241.9 3760.56 2134.74 3700.27 2016.17 3611.41C1902.66 3526.37 1788.47 3427.11 1721.97 3278.02C1639.27 3092.6 1661.82 2902.07 1694.79 2740.15C1704.37 2693.03 1714.9 2645.1 1725.09 2598.75C1740.97 2526.45 1755.97 2458.17 1764.96 2404.05C1792.82 2236.31 1695.28 2024.15 1694.29 2022L1670.4 1970.7L1726.87 1974.56C1960.22 1990.43 2134.28 2116.48 2239.18 2219.42L2258 2237.89L2244.43 2260.49C1732.91 3112.94 2242.71 3595.42 2487.71 3827.3L2445.75 3879.09Z" fill="#302E2C"/>
<path fill-rule="evenodd" clip-rule="evenodd" d="M1791.52 2400.25C1695.28 2306.55 1534.82 2194.18 1298.92 2161.25C1298.92 2161.25 1458.61 2403.19 1438.12 2670.62C1429.86 2778.73 1418.23 2894.49 1415.44 3003.54C1413.2 3090.83 1416.08 3178.31 1439.27 3260.01C1467.22 3358.42 1526.04 3435.72 1600.18 3497.33C1690.32 3572.27 1798.74 3622.42 1907.12 3661.55C1986.37 3690.19 2130 3731.03 2260.11 3792.96C2329.31 3825.92 2447.65 3851.94 2506.86 3901.92L2393.49 3807.68C2303.22 3755.77 2177.01 3690.15 2036.22 3584.65C1919.34 3497.06 1813.92 3402.1 1752.51 3264.41C1679.57 3100.84 1689.81 2932.22 1727.54 2746.82C1752.08 2626.27 1783.01 2499.47 1797.95 2409.52C1798.13 2408.45 1798.27 2407.37 1798.45 2406.29C1796.07 2404.41 1793.75 2402.41 1791.52 2400.25Z" fill="#FFF000"/>
<path d="M1363.48 2206.79C1411.16 2298.66 1486.4 2478.08 1471.46 2673.16C1469.42 2699.95 1467.16 2727.19 1464.88 2754.7C1458.03 2837.55 1450.93 2923.24 1448.86 3004.39C1446.93 3080.14 1448.08 3168.65 1471.44 3250.88C1495.12 3334.25 1545.62 3408.51 1621.55 3471.61C1695.94 3533.45 1790.28 3583.82 1918.47 3630.11C1938.84 3637.46 1963.42 3645.61 1991.88 3655.02C2044.11 3672.32 2109.27 3693.89 2176.02 3720.25C2125.98 3689.21 2072.35 3653.51 2016.17 3611.41C1902.66 3526.37 1788.47 3427.11 1721.97 3278.02C1639.27 3092.6 1661.82 2902.07 1694.79 2740.15C1704.37 2693.03 1714.9 2645.1 1725.09 2598.75C1739.57 2532.81 1753.33 2470.22 1762.46 2418.66C1681.67 2341.55 1550.74 2248.16 1363.48 2206.79ZM2485.48 3927.64L2483.73 3926.17C2449.67 3898.32 2388.98 3876.9 2335.41 3858C2302.62 3846.42 2271.64 3835.5 2245.75 3823.15C2151.64 3778.36 2051.39 3745.17 1970.86 3718.51C1941.94 3708.93 1916.97 3700.66 1895.76 3693C1760.04 3644 1659.33 3590 1578.8 3523.03C1492.31 3451.16 1434.55 3365.73 1407.11 3269.13C1381.31 3178.28 1379.94 3083.46 1382.02 3002.69C1384.14 2919.63 1391.31 2832.98 1398.24 2749.19C1400.5 2721.83 1402.75 2694.7 1404.79 2668.06C1424.12 2415.69 1272.53 2181.97 1271 2179.66L1230.41 2117.95L1303.54 2128.14C1550.93 2162.67 1718.14 2282.14 1814.84 2376.28C1816.21 2377.61 1817.65 2378.86 1819.15 2380.03L1834.52 2392.16L1830.93 2414.95C1821.67 2470.83 1806.47 2539.93 1790.4 2613.09C1780.27 2659.2 1769.8 2706.87 1760.3 2753.5C1727.91 2912.65 1708.24 3083.05 1783.04 3250.78C1843.32 3385.93 1949.98 3478.25 2056.26 3557.89C2171.33 3644.11 2276.35 3703.21 2360.74 3750.69C2378.19 3760.52 2394.7 3769.8 2410.16 3778.69L2414.87 3781.96L2528.43 3876.38L2485.48 3927.64Z" fill="#302E2C"/>
<path fill-rule="evenodd" clip-rule="evenodd" d="M2781.21 2243.28C2891.12 2135.43 3055.8 2022.63 3272.34 2007.91C3272.34 2007.91 3169.13 2229.64 3199 2409.52C3213.94 2499.47 3244.87 2626.27 3269.42 2746.82C3307.14 2932.22 3317.38 3100.84 3244.45 3264.41C3183.04 3402.1 3077.61 3497.06 2960.73 3584.65C2777.49 3721.95 2618.97 3791.72 2532.21 3851.57C2788.21 3609.31 3298.6 3105.54 2781.21 2243.28Z" fill="#FFF000"/>
<path d="M2823.5 2249.12C3231.2 2948.04 2974.04 3419.07 2732 3695.89C2795.39 3658.5 2865.92 3613.93 2940.7 3557.89C3047 3478.23 3153.65 3385.9 3213.91 3250.78C3288.7 3083.06 3269.05 2912.65 3236.63 2753.5C3227.15 2706.9 3216.71 2659.26 3206.57 2613.19C3190.48 2539.98 3175.3 2470.85 3166.03 2415C3143.62 2280.06 3190.32 2126.61 3220.05 2047.31C3046.89 2073.95 2912.55 2166.44 2823.5 2249.12ZM2551.2 3879.09L2509.25 3827.29C2754.25 3595.42 3264.04 3112.94 2752.52 2260.49L2738.96 2237.89L2757.78 2219.42C2862.68 2116.48 3036.73 1990.43 3270.07 1974.55L3326.47 1970.71L3302.68 2021.99C3301.68 2024.13 3204.23 2236.73 3231.99 2404.05C3240.98 2458.2 3256 2526.5 3271.87 2598.82C3282.06 2645.15 3292.59 2693.06 3302.18 2740.15C3335.15 2902.07 3357.68 3092.6 3274.99 3278.02C3208.51 3427.08 3094.31 3526.34 2980.8 3611.41C2862.21 3700.26 2755.07 3760.54 2668.99 3808.99C2621.97 3835.43 2581.4 3858.27 2551.2 3879.09Z" fill="#302E2C"/>
<path fill-rule="evenodd" clip-rule="evenodd" d="M3205.42 2400.25C3301.68 2306.55 3462.15 2194.18 3698.05 2161.25C3698.05 2161.25 3538.37 2403.19 3558.82 2670.62C3567.1 2778.73 3578.72 2894.49 3581.51 3003.54C3583.76 3090.83 3580.87 3178.31 3557.67 3260.01C3529.72 3358.42 3470.92 3435.72 3396.79 3497.33C3306.65 3572.27 3198.21 3622.42 3089.87 3661.55C3010.58 3690.19 2866.97 3731.03 2736.83 3792.96C2667.65 3825.92 2549.31 3851.94 2490.11 3901.92L2603.46 3807.68C2693.73 3755.77 2819.95 3690.15 2960.74 3584.65C3077.61 3497.06 3183.04 3402.1 3244.45 3264.41C3317.38 3100.84 3307.14 2932.22 3269.42 2746.82C3244.87 2626.27 3213.94 2499.47 3199 2409.52C3198.84 2408.45 3198.68 2407.37 3198.5 2406.29C3200.89 2404.41 3203.2 2402.41 3205.42 2400.25Z" fill="#FFF000"/>
<path d="M3234.52 2418.65C3243.72 2470.68 3257.43 2533.09 3271.87 2598.82C3282.06 2645.15 3292.59 2693.06 3302.18 2740.15C3335.15 2902.07 3357.68 3092.6 3274.99 3278.02C3208.51 3427.08 3094.3 3526.34 2980.8 3611.41C2924.61 3653.51 2870.99 3689.21 2820.96 3720.25C2887.71 3693.89 2952.86 3672.32 3005.07 3655.03C3033.54 3645.61 3058.13 3637.47 3078.5 3630.11C3206.7 3583.82 3301.03 3533.45 3375.39 3471.63C3451.33 3408.52 3501.81 3334.26 3525.51 3250.88C3548.87 3168.61 3550.04 3080.11 3548.1 3004.39C3546.02 2923.2 3538.91 2837.48 3532.07 2754.59C3529.79 2727.12 3527.52 2699.92 3525.49 2673.16C3510.55 2478.08 3585.81 2298.66 3633.47 2206.79C3446.21 2248.16 3315.28 2341.55 3234.52 2418.65ZM2511.48 3927.62L2468.54 3876.38L2470.6 3874.65L2586.79 3778.69C2602.25 3769.8 2618.76 3760.52 2636.21 3750.69C2720.6 3703.21 2825.64 3644.13 2940.7 3557.89C3047 3478.23 3153.65 3385.9 3213.91 3250.78C3288.7 3083.06 3269.05 2912.65 3236.63 2753.5C3227.15 2706.9 3216.7 2659.26 3206.57 2613.19C3190.48 2539.98 3175.3 2470.85 3166.03 2415L3162.41 2393.51L3177.81 2380.04C3179.27 2378.88 3180.71 2377.65 3182.06 2376.32C3278.83 2282.14 3446.06 2162.67 3693.43 2128.14L3766.56 2117.92L3725.97 2179.66C3724.43 2181.97 3572.85 2415.69 3592.17 2668.06C3594.22 2694.66 3596.44 2721.75 3598.71 2749.08C3605.66 2832.9 3612.81 2919.59 3614.95 3002.68C3617.02 3083.45 3615.66 3178.25 3589.86 3269.13C3562.4 3365.75 3504.64 3451.16 3418.16 3523.05C3337.65 3590 3236.93 3644.01 3101.19 3693C3079.98 3700.67 3055.01 3708.93 3026.1 3718.51C2945.57 3745.18 2845.32 3778.36 2751.19 3823.15C2725.31 3835.5 2694.33 3846.42 2661.54 3858C2607.98 3876.91 2547.28 3898.33 2513.23 3926.17L2511.48 3927.62Z" fill="#302E2C"/>
<path fill-rule="evenodd" clip-rule="evenodd" d="M2500.88 1855.14C1507.29 3005.2 2229.25 3627.37 2500.57 3885.49C2759.24 3650.29 3494.46 3005.2 2500.88 1855.14Z" fill="#FFF000"/>
<path d="M2500.88 1906.62C2112.15 2366.83 1961.01 2791.4 2051.7 3168.91C2128.27 3487.61 2360.83 3707.39 2499.78 3838.68L2501.04 3839.88C2632.79 3719.92 2859 3505.95 2940.94 3193.89C3042.79 2806.06 2894.76 2373.11 2500.88 1906.62ZM2500.06 3931.15L2453.84 3887.28C2165.09 3614.41 1488.86 2975.39 2475.59 1833.27L2500.88 1804L2526.18 1833.27C2954.26 2328.77 3115.57 2792.26 3005.62 3210.87C2915.58 3553.73 2665.86 3780.54 2531.69 3902.39L2500.06 3931.15Z" fill="#302E2C"/>
<path d="M2533.44 4264.77H2466.57V3891.76H2533.44V4264.77ZM2091.84 4302.28L1982.85 4074.32L2011.58 4059.4C2187.25 3968.33 2316.45 3800.49 2317.73 3798.81L2370.94 3839.31C2365.62 3846.3 2244.95 4003.35 2070.8 4103.25L2152.17 4273.44L2091.84 4302.28ZM2908.16 4302.28L2847.82 4273.44L2929.19 4103.25C2755.04 4003.35 2634.38 3846.3 2629.08 3839.31L2682.29 3798.81C2683.57 3800.49 2812.77 3968.33 2988.41 4059.4L3017.16 4074.32L2908.16 4302.28Z" fill="#302E2C"/>
</svg>
